<?xml version="1.0" encoding="UTF-8" standalone="no"?>
<!-- Created with Inkscape (http://www.inkscape.org/) -->

<svg
   width="210mm"
   height="297mm"
   viewBox="0 0 210 297"
   version="1.1"
   id="svg4927"
   inkscape:version="1.1.1 (1:1.1+202109281949+c3084ef5ed)"
   sodipodi:docname="Bracelet Size L.svg"
   xmlns:inkscape="http://www.inkscape.org/namespaces/inkscape"
   xmlns:sodipodi="http://sodipodi.sourceforge.net/DTD/sodipodi-0.dtd"
   xmlns="http://www.w3.org/2000/svg"
   xmlns:svg="http://www.w3.org/2000/svg">
  <sodipodi:namedview
     id="namedview4929"
     pagecolor="#ffffff"
     bordercolor="#666666"
     borderopacity="1.0"
     inkscape:pageshadow="2"
     inkscape:pageopacity="0.0"
     inkscape:pagecheckerboard="0"
     inkscape:document-units="mm"
     showgrid="false"
     inkscape:zoom="0.64052329"
     inkscape:cx="397.33138"
     inkscape:cy="561.25984"
     inkscape:window-width="1864"
     inkscape:window-height="1016"
     inkscape:window-x="56"
     inkscape:window-y="27"
     inkscape:window-maximized="1"
     inkscape:current-layer="layer1" />
  <defs
     id="defs4924" />
  <g
     inkscape:label="Layer 1"
     inkscape:groupmode="layer"
     id="layer1">
    <g
       id="g5012"
       transform="translate(-54.126219,-38.416595)">
      <path
         id="path938"
         style="fill:none;stroke:#000000;stroke-width:1.85279;stroke-linecap:round;stroke-linejoin:round"
         d="M 72.962976,86.31011 A 35.826483,25.169613 0 0 1 56.270491,57.9982 35.826483,25.169613 0 0 1 90.876216,39.34299 35.826483,25.169613 0 0 1 125.48194,57.9982 35.826483,25.169613 0 0 1 108.78946,86.31011" />
      <path
         id="path3484"
         style="stroke-width:7.559;stroke-linecap:round;stroke-linejoin:round"
         d="m 75.438104,86.3101 a 2.5,2.5 0 0 1 -2.5,2.5 2.5,2.5 0 0 1 -2.5,-2.5 2.5,2.5 0 0 1 2.5,-2.5 2.5,2.5 0 0 1 2.5,2.5 z" />
      <path
         id="path3486"
         style="stroke-width:7.559;stroke-linecap:round;stroke-linejoin:round"
         d="m 111.27943,86.31011 a 2.5,2.5 0 0 1 -2.5,2.5 2.5,2.5 0 0 1 -2.5,-2.5 2.5,2.5 0 0 1 2.5,-2.5 2.5,2.5 0 0 1 2.5,2.5 z" />
    </g>
  </g>
</svg>
