<?xml version="1.0" encoding="UTF-8" standalone="no"?>
<!-- Created with Inkscape (http://www.inkscape.org/) -->

<svg
   width="210mm"
   height="297mm"
   viewBox="0 0 210 297"
   version="1.1"
   id="svg2478"
   inkscape:version="1.1.1 (1:1.1+202109281949+c3084ef5ed)"
   sodipodi:docname="Bracelet Size XL.svg"
   xmlns:inkscape="http://www.inkscape.org/namespaces/inkscape"
   xmlns:sodipodi="http://sodipodi.sourceforge.net/DTD/sodipodi-0.dtd"
   xmlns="http://www.w3.org/2000/svg"
   xmlns:svg="http://www.w3.org/2000/svg">
  <sodipodi:namedview
     id="namedview2480"
     pagecolor="#ffffff"
     bordercolor="#666666"
     borderopacity="1.0"
     inkscape:pageshadow="2"
     inkscape:pageopacity="0.0"
     inkscape:pagecheckerboard="0"
     inkscape:document-units="mm"
     showgrid="false"
     inkscape:zoom="1.2810466"
     inkscape:cx="284.53298"
     inkscape:cy="218.18098"
     inkscape:window-width="1864"
     inkscape:window-height="1016"
     inkscape:window-x="56"
     inkscape:window-y="27"
     inkscape:window-maximized="1"
     inkscape:current-layer="layer1" />
  <defs
     id="defs2475" />
  <g
     inkscape:label="Layer 1"
     inkscape:groupmode="layer"
     id="layer1">
    <g
       id="g33846"
       transform="translate(-69.7946,-69.848396)">
      <path
         id="rect20801"
         style="fill:#ff0000;fill-opacity:1;stroke-width:8.1058;stroke-linecap:round;stroke-linejoin:round;stroke-miterlimit:4;stroke-dasharray:none"
         d="m 100.14395,69.848396 v 5.978446 h 18.64124 v -5.978446 z m 10.91613,1.415934 c 0.29903,0 0.53399,0.08062 0.70487,0.241845 0.17087,0.161231 0.25631,0.361735 0.25631,0.601514 0,0.136424 -0.0248,0.26665 -0.0744,0.390673 -0.0482,0.122645 -0.12541,0.251492 -0.23151,0.386541 -0.0703,0.08957 -0.19706,0.218418 -0.38034,0.38654 -0.18328,0.168119 -0.29973,0.279741 -0.34933,0.334862 -0.0482,0.05512 -0.0875,0.108865 -0.11783,0.161232 h 1.15342 v 0.539501 h -2.03605 c 0.022,-0.203949 0.0882,-0.396875 0.19844,-0.578776 0.11024,-0.18328 0.32797,-0.425815 0.65319,-0.727604 0.26182,-0.243912 0.42236,-0.409279 0.48162,-0.496094 0.0799,-0.119888 0.11989,-0.2384 0.11989,-0.355534 0,-0.129535 -0.0351,-0.228753 -0.10542,-0.297656 -0.0689,-0.07028 -0.16468,-0.105421 -0.28732,-0.105421 -0.12127,0 -0.21773,0.03652 -0.28939,0.109554 -0.0717,0.07304 -0.113,0.194304 -0.12402,0.363802 l -0.57878,-0.05787 c 0.0344,-0.319707 0.14263,-0.549151 0.32453,-0.688332 0.1819,-0.139182 0.40928,-0.208772 0.68213,-0.208772 z m 2.36885,0 h 0.47128 v 3.042708 h -0.58084 v -2.189014 c -0.21221,0.198437 -0.46233,0.345199 -0.75034,0.440285 v -0.5271 c 0.15159,-0.04961 0.31626,-0.143317 0.49403,-0.28112 0.17777,-0.139182 0.29972,-0.301101 0.36587,-0.485759 z m 2.3213,0 c 0.29353,0 0.52297,0.10473 0.68833,0.314192 0.19706,0.248047 0.29559,0.659392 0.29559,1.234033 0,0.573265 -0.0992,0.985298 -0.29766,1.236101 -0.16398,0.206706 -0.39273,0.310058 -0.68626,0.310058 -0.2949,0 -0.53261,-0.112999 -0.71313,-0.338998 -0.18052,-0.227375 -0.27079,-0.63183 -0.27079,-1.21336 0,-0.570508 0.0992,-0.981165 0.29766,-1.231969 0.16398,-0.206703 0.39274,-0.310057 0.68626,-0.310057 z m -13.45861,0.01241 h 0.7152 l 0.60772,0.973584 0.59531,-0.973584 h 0.709 l -0.94258,1.471744 1.0356,1.558563 h -0.73794 l -0.67179,-1.047999 -0.67387,1.047999 h -0.7338 l 1.0356,-1.581298 z m 3.05098,0.02482 h 0.61185 v 2.494936 h 1.52135 v 0.510563 h -2.1332 z m 10.40763,0.444415 c -0.0703,0 -0.13298,0.02273 -0.1881,0.06822 -0.0551,0.04409 -0.0978,0.124023 -0.12816,0.239776 -0.04,0.150206 -0.0599,0.403077 -0.0599,0.75861 0,0.355534 0.0179,0.600136 0.0537,0.733806 0.0358,0.132292 0.0806,0.220486 0.13436,0.264584 0.0551,0.0441 0.11782,0.06615 0.1881,0.06615 0.0703,0 0.13298,-0.02204 0.1881,-0.06615 0.0551,-0.04547 0.0978,-0.12609 0.12816,-0.241845 0.04,-0.148828 0.06,-0.401011 0.06,-0.756545 0,-0.355533 -0.0179,-0.599445 -0.0538,-0.731737 -0.0358,-0.13367 -0.0813,-0.222554 -0.13642,-0.266649 -0.0537,-0.04548 -0.11576,-0.06822 -0.18604,-0.06822 z" />
      <path
         id="path1658"
         style="stroke-width:15.118;stroke-linecap:round;stroke-linejoin:round"
         d="m 95.09836,126.73158 a 5,5 0 0 1 -5,5 5,5 0 0 1 -5,-5 5,5 0 0 1 5,-5 5,5 0 0 1 5,5 z" />
      <path
         id="path1857"
         style="stroke-width:15.118;stroke-linecap:round;stroke-linejoin:round;stroke-miterlimit:4;stroke-dasharray:none"
         d="m 133.94101,126.73158 a 5.0000001,5.0000001 0 0 1 -5,5 5.0000001,5.0000001 0 0 1 -5,-5 5.0000001,5.0000001 0 0 1 5,-5 5.0000001,5.0000001 0 0 1 5,5 z" />
      <path
         id="path1626"
         style="fill:none;stroke:#000000;stroke-width:2;stroke-linecap:round;stroke-linejoin:round"
         d="m 90.128011,126.73158 a 38.673046,27.169443 0 0 1 -18.018771,-30.5614 38.673046,27.169443 0 0 1 37.35529,-20.13747 38.673046,27.169443 0 0 1 37.3553,20.13747 38.673046,27.169443 0 0 1 -18.01877,30.5614" />
    </g>
  </g>
</svg>
