solid OpenSCAD_Model
  facet normal -0.723906 -0.368849 0.583019
    outer loop
      vertex 0.327502 0.781492 4.46711
      vertex 0.279161 0.47628 4.21399
      vertex 0.427939 0.584373 4.46711
    endloop
  endfacet
  facet normal 0 -0.951057 0.309016
    outer loop
      vertex 1 0.0123119 3.91643
      vertex 43.45 0.108994 4.21399
      vertex 1 0.108994 4.21399
    endloop
  endfacet
  facet normal 0 -0.951057 0.309016
    outer loop
      vertex 43.45 0.108994 4.21399
      vertex 1 0.0123119 3.91643
      vertex 43.45 0.0123119 3.91643
    endloop
  endfacet
  facet normal 0.891011 0.453982 0
    outer loop
      vertex 44.4011 4.06902 1
      vertex 44.259 4.34778 0
      vertex 44.259 4.34778 1
    endloop
  endfacet
  facet normal 0.891011 0.453982 0
    outer loop
      vertex 44.259 4.34778 0
      vertex 44.4011 4.06902 1
      vertex 44.4011 4.06902 0
    endloop
  endfacet
  facet normal -0.987688 -0.156435 0
    outer loop
      vertex 0.0489435 0.690984 0
      vertex 0 1 1
      vertex 0 1 0
    endloop
  endfacet
  facet normal -0.987688 -0.156435 0
    outer loop
      vertex 0 1 1
      vertex 0.0489435 0.690984 0
      vertex 0.0489435 0.690984 1
    endloop
  endfacet
  facet normal -0.940447 -0.148952 0.305569
    outer loop
      vertex 0.108994 1 4.21399
      vertex 0.0123119 1 3.91643
      vertex 0.0606527 0.694788 3.91643
    endloop
  endfacet
  facet normal 0 1 -0
    outer loop
      vertex 43.45 4.76 0
      vertex 4.76 4.76 1
      vertex 43.45 4.76 1
    endloop
  endfacet
  facet normal 0 1 0
    outer loop
      vertex 4.76 4.76 1
      vertex 43.45 4.76 0
      vertex 4.76 4.76 0
    endloop
  endfacet
  facet normal -0.809016 0 0.587786
    outer loop
      vertex 0.108994 1 4.21399
      vertex 0.292893 18.05 4.46711
      vertex 0.108994 18.05 4.21399
    endloop
  endfacet
  facet normal -0.809016 0 0.587786
    outer loop
      vertex 0.292893 18.05 4.46711
      vertex 0.108994 1 4.21399
      vertex 0.292893 1 4.46711
    endloop
  endfacet
  facet normal 0.707104 0.70711 -0
    outer loop
      vertex 44.259 4.34778 0
      vertex 44.0378 4.56902 1
      vertex 44.259 4.34778 1
    endloop
  endfacet
  facet normal 0.707104 0.70711 0
    outer loop
      vertex 44.0378 4.56902 1
      vertex 44.259 4.34778 0
      vertex 44.0378 4.56902 0
    endloop
  endfacet
  facet normal -0.141871 -0.278437 0.949919
    outer loop
      vertex 0.951659 0.851222 4.74769
      vertex 0.733151 0.632714 4.65101
      vertex 0.85971 0.56823 4.65101
    endloop
  endfacet
  facet normal -0 0.309019 0.951056
    outer loop
      vertex 4.21399 4.21399 4.65101
      vertex 43.45 3.91643 4.74769
      vertex 43.45 4.21399 4.65101
    endloop
  endfacet
  facet normal 0 0.309019 0.951056
    outer loop
      vertex 43.45 3.91643 4.74769
      vertex 4.21399 4.21399 4.65101
      vertex 3.91643 3.91643 4.74769
    endloop
  endfacet
  facet normal 0.156433 0.98768 0.00416965
    outer loop
      vertex 43.759 4.71106 1
      vertex 43.45 4.76 1
      vertex 43.7552 4.69935 3.91643
    endloop
  endfacet
  facet normal 0.156433 -0.98768 0.00416965
    outer loop
      vertex 43.7552 0.0606527 3.91643
      vertex 43.45 0 1
      vertex 43.759 0.0489435 1
    endloop
  endfacet
  facet normal -0.848389 -0.432277 0.305571
    outer loop
      vertex 0.279161 0.47628 4.21399
      vertex 0.0606527 0.694788 3.91643
      vertex 0.200944 0.419452 3.91643
    endloop
  endfacet
  facet normal 0.156434 0.98768 0.00416956
    outer loop
      vertex 43.45 4.76 1
      vertex 43.45 4.74769 3.91643
      vertex 43.7552 4.69935 3.91643
    endloop
  endfacet
  facet normal -0.98768 -0.156434 0.00416949
    outer loop
      vertex 0.0606527 0.694788 3.91643
      vertex 0 1 1
      vertex 0.0489435 0.690984 1
    endloop
  endfacet
  facet normal -0.890998 -0.453988 0.00416946
    outer loop
      vertex 0.0606527 0.694788 3.91643
      vertex 0.0489435 0.690984 1
      vertex 0.200944 0.419452 3.91643
    endloop
  endfacet
  facet normal 0.890996 0.453992 0.00416887
    outer loop
      vertex 44.4011 4.06902 1
      vertex 44.2491 4.34055 3.91643
      vertex 44.3893 4.06521 3.91643
    endloop
  endfacet
  facet normal 0.999991 -0 0.00422219
    outer loop
      vertex 44.4377 1 3.91643
      vertex 44.45 3.76 1
      vertex 44.4377 3.76 3.91643
    endloop
  endfacet
  facet normal 0.999991 0 0.00422219
    outer loop
      vertex 44.45 3.76 1
      vertex 44.4377 1 3.91643
      vertex 44.45 1 1
    endloop
  endfacet
  facet normal 0.453991 0.890997 0.0041694
    outer loop
      vertex 44.0378 4.56902 1
      vertex 43.759 4.71106 1
      vertex 44.0305 4.55906 3.91643
    endloop
  endfacet
  facet normal 0.891003 0.453978 0.00417055
    outer loop
      vertex 44.259 4.34778 1
      vertex 44.2491 4.34055 3.91643
      vertex 44.4011 4.06902 1
    endloop
  endfacet
  facet normal 0.940447 -0.148955 0.305569
    outer loop
      vertex 44.341 1 4.21399
      vertex 44.2974 0.724665 4.21399
      vertex 44.3893 0.694788 3.91643
    endloop
  endfacet
  facet normal -0.432276 -0.848389 0.305572
    outer loop
      vertex 0.724665 0.152603 4.21399
      vertex 0.47628 0.279161 4.21399
      vertex 0.694788 0.0606527 3.91643
    endloop
  endfacet
  facet normal -0.585255 -0.0926969 0.805533
    outer loop
      vertex 0.56823 0.85971 4.65101
      vertex 0.292893 1 4.46711
      vertex 0.327502 0.781492 4.46711
    endloop
  endfacet
  facet normal -0.30865 -0.0488851 0.949919
    outer loop
      vertex 0.851222 0.951659 4.74769
      vertex 0.54601 1 4.65101
      vertex 0.56823 0.85971 4.65101
    endloop
  endfacet
  facet normal 0 0 1
    outer loop
      vertex 43.45 18.2064 4.74769
      vertex 43.6064 18.05 4.74769
      vertex 43.5988 18.0983 4.74769
    endloop
  endfacet
  facet normal 0 0 1
    outer loop
      vertex 43.6064 18.05 4.74769
      vertex 43.45 18.2064 4.74769
      vertex 43.6064 15.29 4.74769
    endloop
  endfacet
  facet normal 0 0 1
    outer loop
      vertex 43.45 18.2064 4.74769
      vertex 43.5988 18.0983 4.74769
      vertex 43.5766 18.1419 4.74769
    endloop
  endfacet
  facet normal 0 0 1
    outer loop
      vertex 43.45 15.1336 4.74769
      vertex 43.6064 15.29 4.74769
      vertex 43.45 18.2064 4.74769
    endloop
  endfacet
  facet normal 0 0 1
    outer loop
      vertex 43.45 18.2064 4.74769
      vertex 43.5766 18.1419 4.74769
      vertex 43.542 18.1766 4.74769
    endloop
  endfacet
  facet normal 0 0 1
    outer loop
      vertex 43.6064 15.29 4.74769
      vertex 43.45 15.1336 4.74769
      vertex 43.5988 15.2417 4.74769
    endloop
  endfacet
  facet normal 0 0 1
    outer loop
      vertex 43.45 18.2064 4.74769
      vertex 43.542 18.1766 4.74769
      vertex 43.4983 18.1988 4.74769
    endloop
  endfacet
  facet normal 0 0 1
    outer loop
      vertex 43.5988 15.2417 4.74769
      vertex 43.45 15.1336 4.74769
      vertex 43.5766 15.1981 4.74769
    endloop
  endfacet
  facet normal 0 0 1
    outer loop
      vertex 43.5766 15.1981 4.74769
      vertex 43.45 15.1336 4.74769
      vertex 43.542 15.1634 4.74769
    endloop
  endfacet
  facet normal 0 0 1
    outer loop
      vertex 43.542 15.1634 4.74769
      vertex 43.45 15.1336 4.74769
      vertex 43.4983 15.1412 4.74769
    endloop
  endfacet
  facet normal 0 0 1
    outer loop
      vertex 43.45 18.2064 4.74769
      vertex 3.91643 15.1336 4.74769
      vertex 43.45 15.1336 4.74769
    endloop
  endfacet
  facet normal -0 0 1
    outer loop
      vertex 0.843566 18.05 4.74769
      vertex 3.91643 15.1336 4.74769
      vertex 1 18.2064 4.74769
    endloop
  endfacet
  facet normal -0 0 1
    outer loop
      vertex 1 18.2064 4.74769
      vertex 3.91643 15.1336 4.74769
      vertex 43.45 18.2064 4.74769
    endloop
  endfacet
  facet normal 0 0 1
    outer loop
      vertex 43.45 3.91643 4.74769
      vertex 43.6064 3.76 4.74769
      vertex 43.5988 3.80834 4.74769
    endloop
  endfacet
  facet normal 0 0 1
    outer loop
      vertex 43.6064 3.76 4.74769
      vertex 43.45 3.91643 4.74769
      vertex 43.6064 1 4.74769
    endloop
  endfacet
  facet normal 0 0 1
    outer loop
      vertex 43.45 3.91643 4.74769
      vertex 43.5988 3.80834 4.74769
      vertex 43.5766 3.85195 4.74769
    endloop
  endfacet
  facet normal 0 0 1
    outer loop
      vertex 43.45 0.843566 4.74769
      vertex 43.6064 1 4.74769
      vertex 43.45 3.91643 4.74769
    endloop
  endfacet
  facet normal 0 0 1
    outer loop
      vertex 43.45 3.91643 4.74769
      vertex 43.5766 3.85195 4.74769
      vertex 43.542 3.88656 4.74769
    endloop
  endfacet
  facet normal 0 0 1
    outer loop
      vertex 43.6064 1 4.74769
      vertex 43.45 0.843566 4.74769
      vertex 43.5988 0.951659 4.74769
    endloop
  endfacet
  facet normal 0 0 1
    outer loop
      vertex 43.45 3.91643 4.74769
      vertex 43.542 3.88656 4.74769
      vertex 43.4983 3.90878 4.74769
    endloop
  endfacet
  facet normal 0 0 1
    outer loop
      vertex 43.5988 0.951659 4.74769
      vertex 43.45 0.843566 4.74769
      vertex 43.5766 0.908051 4.74769
    endloop
  endfacet
  facet normal 0 0 1
    outer loop
      vertex 43.5766 0.908051 4.74769
      vertex 43.45 0.843566 4.74769
      vertex 43.542 0.873443 4.74769
    endloop
  endfacet
  facet normal 0 0 1
    outer loop
      vertex 43.542 0.873443 4.74769
      vertex 43.45 0.843566 4.74769
      vertex 43.4983 0.851222 4.74769
    endloop
  endfacet
  facet normal -0 0 1
    outer loop
      vertex 3.91643 3.91643 4.74769
      vertex 43.45 0.843566 4.74769
      vertex 43.45 3.91643 4.74769
    endloop
  endfacet
  facet normal 0 0 1
    outer loop
      vertex 3.91643 3.91643 4.74769
      vertex 1 0.843566 4.74769
      vertex 43.45 0.843566 4.74769
    endloop
  endfacet
  facet normal 0 0 1
    outer loop
      vertex 3.91643 15.1336 4.74769
      vertex 0.843566 18.05 4.74769
      vertex 3.91643 3.91643 4.74769
    endloop
  endfacet
  facet normal 0 0 1
    outer loop
      vertex 0.843566 18.05 4.74769
      vertex 1 18.2064 4.74769
      vertex 0.951659 18.1988 4.74769
    endloop
  endfacet
  facet normal 0 0 1
    outer loop
      vertex 0.843566 1 4.74769
      vertex 3.91643 3.91643 4.74769
      vertex 0.843566 18.05 4.74769
    endloop
  endfacet
  facet normal 0 0 1
    outer loop
      vertex 0.843566 18.05 4.74769
      vertex 0.951659 18.1988 4.74769
      vertex 0.908051 18.1766 4.74769
    endloop
  endfacet
  facet normal 0 0 1
    outer loop
      vertex 3.91643 3.91643 4.74769
      vertex 0.843566 1 4.74769
      vertex 1 0.843566 4.74769
    endloop
  endfacet
  facet normal 0 0 1
    outer loop
      vertex 0.843566 18.05 4.74769
      vertex 0.908051 18.1766 4.74769
      vertex 0.873443 18.1419 4.74769
    endloop
  endfacet
  facet normal 0 0 1
    outer loop
      vertex 1 0.843566 4.74769
      vertex 0.843566 1 4.74769
      vertex 0.951659 0.851222 4.74769
    endloop
  endfacet
  facet normal 0 0 1
    outer loop
      vertex 0.843566 18.05 4.74769
      vertex 0.873443 18.1419 4.74769
      vertex 0.851222 18.0983 4.74769
    endloop
  endfacet
  facet normal 0 0 1
    outer loop
      vertex 0.951659 0.851222 4.74769
      vertex 0.843566 1 4.74769
      vertex 0.908051 0.873443 4.74769
    endloop
  endfacet
  facet normal 0 0 1
    outer loop
      vertex 0.908051 0.873443 4.74769
      vertex 0.843566 1 4.74769
      vertex 0.873443 0.908051 4.74769
    endloop
  endfacet
  facet normal 0 0 1
    outer loop
      vertex 0.873443 0.908051 4.74769
      vertex 0.843566 1 4.74769
      vertex 0.851222 0.951659 4.74769
    endloop
  endfacet
  facet normal 0 0.999991 0.00422153
    outer loop
      vertex 43.45 4.76 1
      vertex 4.74769 4.74769 3.91643
      vertex 43.45 4.74769 3.91643
    endloop
  endfacet
  facet normal 0 0.999991 0.00422153
    outer loop
      vertex 4.74769 4.74769 3.91643
      vertex 43.45 4.76 1
      vertex 4.76 4.76 1
    endloop
  endfacet
  facet normal 0.269009 -0.527968 0.805533
    outer loop
      vertex 43.7169 0.632714 4.65101
      vertex 43.5903 0.56823 4.65101
      vertex 43.6685 0.327502 4.46711
    endloop
  endfacet
  facet normal -0.368849 -0.723906 0.583019
    outer loop
      vertex 0.584373 0.427939 4.46711
      vertex 0.47628 0.279161 4.21399
      vertex 0.781492 0.327502 4.46711
    endloop
  endfacet
  facet normal 0.148953 0.940447 0.305569
    outer loop
      vertex 43.45 4.74769 3.91643
      vertex 43.45 4.65101 4.21399
      vertex 43.7552 4.69935 3.91643
    endloop
  endfacet
  facet normal 0.432273 0.84839 0.305572
    outer loop
      vertex 43.7552 4.69935 3.91643
      vertex 43.7253 4.6074 4.21399
      vertex 43.9737 4.48084 4.21399
    endloop
  endfacet
  facet normal -0.309019 0 0.951056
    outer loop
      vertex 0.54601 18.05 4.65101
      vertex 0.843566 1 4.74769
      vertex 0.843566 18.05 4.74769
    endloop
  endfacet
  facet normal -0.309019 0 0.951056
    outer loop
      vertex 0.843566 1 4.74769
      vertex 0.54601 18.05 4.65101
      vertex 0.54601 1 4.65101
    endloop
  endfacet
  facet normal -1 0 0
    outer loop
      vertex 0 1 0
      vertex 0 18.05 1
      vertex 0 18.05 0
    endloop
  endfacet
  facet normal -1 -0 0
    outer loop
      vertex 0 18.05 1
      vertex 0 1 0
      vertex 0 1 1
    endloop
  endfacet
  facet normal 0 0 -1
    outer loop
      vertex 43.45 0 0
      vertex 44.45 1 0
      vertex 44.4011 0.690984 0
    endloop
  endfacet
  facet normal -0 0 -1
    outer loop
      vertex 44.45 1 0
      vertex 43.45 0 0
      vertex 44.45 3.76 0
    endloop
  endfacet
  facet normal 0 0 -1
    outer loop
      vertex 43.45 0 0
      vertex 44.4011 0.690984 0
      vertex 44.259 0.412215 0
    endloop
  endfacet
  facet normal 0 0 -1
    outer loop
      vertex 43.45 4.76 0
      vertex 44.45 3.76 0
      vertex 43.45 0 0
    endloop
  endfacet
  facet normal 0 0 -1
    outer loop
      vertex 43.45 0 0
      vertex 44.259 0.412215 0
      vertex 44.0378 0.190984 0
    endloop
  endfacet
  facet normal 0 0 -1
    outer loop
      vertex 44.45 3.76 0
      vertex 43.45 4.76 0
      vertex 44.4011 4.06902 0
    endloop
  endfacet
  facet normal 0 0 -1
    outer loop
      vertex 43.45 0 0
      vertex 44.0378 0.190984 0
      vertex 43.759 0.0489435 0
    endloop
  endfacet
  facet normal 0 0 -1
    outer loop
      vertex 44.4011 4.06902 0
      vertex 43.45 4.76 0
      vertex 44.259 4.34778 0
    endloop
  endfacet
  facet normal 0 0 -1
    outer loop
      vertex 44.259 4.34778 0
      vertex 43.45 4.76 0
      vertex 44.0378 4.56902 0
    endloop
  endfacet
  facet normal 0 0 -1
    outer loop
      vertex 44.0378 4.56902 0
      vertex 43.45 4.76 0
      vertex 43.759 4.71106 0
    endloop
  endfacet
  facet normal 0 0 -1
    outer loop
      vertex 43.45 0 0
      vertex 4.76 4.76 0
      vertex 43.45 4.76 0
    endloop
  endfacet
  facet normal 0 0 -1
    outer loop
      vertex 0 1 0
      vertex 4.76 4.76 0
      vertex 1 0 0
    endloop
  endfacet
  facet normal 0 0 -1
    outer loop
      vertex 1 0 0
      vertex 4.76 4.76 0
      vertex 43.45 0 0
    endloop
  endfacet
  facet normal 0 0 -1
    outer loop
      vertex 43.45 14.29 0
      vertex 44.45 15.29 0
      vertex 44.4011 14.981 0
    endloop
  endfacet
  facet normal -0 0 -1
    outer loop
      vertex 44.45 15.29 0
      vertex 43.45 14.29 0
      vertex 44.45 18.05 0
    endloop
  endfacet
  facet normal 0 0 -1
    outer loop
      vertex 43.45 14.29 0
      vertex 44.4011 14.981 0
      vertex 44.259 14.7022 0
    endloop
  endfacet
  facet normal 0 0 -1
    outer loop
      vertex 43.45 19.05 0
      vertex 44.45 18.05 0
      vertex 43.45 14.29 0
    endloop
  endfacet
  facet normal 0 0 -1
    outer loop
      vertex 43.45 14.29 0
      vertex 44.259 14.7022 0
      vertex 44.0378 14.481 0
    endloop
  endfacet
  facet normal 0 0 -1
    outer loop
      vertex 44.45 18.05 0
      vertex 43.45 19.05 0
      vertex 44.4011 18.359 0
    endloop
  endfacet
  facet normal 0 0 -1
    outer loop
      vertex 43.45 14.29 0
      vertex 44.0378 14.481 0
      vertex 43.759 14.3389 0
    endloop
  endfacet
  facet normal 0 0 -1
    outer loop
      vertex 44.4011 18.359 0
      vertex 43.45 19.05 0
      vertex 44.259 18.6378 0
    endloop
  endfacet
  facet normal 0 0 -1
    outer loop
      vertex 44.259 18.6378 0
      vertex 43.45 19.05 0
      vertex 44.0378 18.859 0
    endloop
  endfacet
  facet normal 0 0 -1
    outer loop
      vertex 44.0378 18.859 0
      vertex 43.45 19.05 0
      vertex 43.759 19.0011 0
    endloop
  endfacet
  facet normal 0 0 -1
    outer loop
      vertex 4.76 14.29 0
      vertex 43.45 19.05 0
      vertex 43.45 14.29 0
    endloop
  endfacet
  facet normal 0 0 -1
    outer loop
      vertex 4.76 14.29 0
      vertex 1 19.05 0
      vertex 43.45 19.05 0
    endloop
  endfacet
  facet normal -0 0 -1
    outer loop
      vertex 4.76 4.76 0
      vertex 0 1 0
      vertex 4.76 14.29 0
    endloop
  endfacet
  facet normal 0 0 -1
    outer loop
      vertex 0 1 0
      vertex 1 0 0
      vertex 0.690984 0.0489435 0
    endloop
  endfacet
  facet normal 0 0 -1
    outer loop
      vertex 0 18.05 0
      vertex 4.76 14.29 0
      vertex 0 1 0
    endloop
  endfacet
  facet normal 0 0 -1
    outer loop
      vertex 0 1 0
      vertex 0.690984 0.0489435 0
      vertex 0.412215 0.190984 0
    endloop
  endfacet
  facet normal 0 0 -1
    outer loop
      vertex 4.76 14.29 0
      vertex 0 18.05 0
      vertex 1 19.05 0
    endloop
  endfacet
  facet normal 0 0 -1
    outer loop
      vertex 0 1 0
      vertex 0.412215 0.190984 0
      vertex 0.190984 0.412215 0
    endloop
  endfacet
  facet normal 0 0 -1
    outer loop
      vertex 1 19.05 0
      vertex 0 18.05 0
      vertex 0.690984 19.0011 0
    endloop
  endfacet
  facet normal 0 0 -1
    outer loop
      vertex 0 1 0
      vertex 0.190984 0.412215 0
      vertex 0.0489435 0.690984 0
    endloop
  endfacet
  facet normal 0 0 -1
    outer loop
      vertex 0.690984 19.0011 0
      vertex 0 18.05 0
      vertex 0.412215 18.859 0
    endloop
  endfacet
  facet normal 0 0 -1
    outer loop
      vertex 0.412215 18.859 0
      vertex 0 18.05 0
      vertex 0.190984 18.6378 0
    endloop
  endfacet
  facet normal 0 0 -1
    outer loop
      vertex 0.190984 18.6378 0
      vertex 0 18.05 0
      vertex 0.0489435 18.359 0
    endloop
  endfacet
  facet normal -0.951057 0 0.309016
    outer loop
      vertex 0.0123119 1 3.91643
      vertex 0.108994 18.05 4.21399
      vertex 0.0123119 18.05 3.91643
    endloop
  endfacet
  facet normal -0.951057 0 0.309016
    outer loop
      vertex 0.108994 18.05 4.21399
      vertex 0.0123119 1 3.91643
      vertex 0.108994 1 4.21399
    endloop
  endfacet
  facet normal -0.802455 -0.127099 0.58302
    outer loop
      vertex 0.327502 0.781492 4.46711
      vertex 0.108994 1 4.21399
      vertex 0.152603 0.724665 4.21399
    endloop
  endfacet
  facet normal -0.940446 -0.148955 0.305572
    outer loop
      vertex 0.108994 1 4.21399
      vertex 0.0606527 0.694788 3.91643
      vertex 0.152603 0.724665 4.21399
    endloop
  endfacet
  facet normal -0.802455 -0.127099 0.58302
    outer loop
      vertex 0.292893 1 4.46711
      vertex 0.108994 1 4.21399
      vertex 0.327502 0.781492 4.46711
    endloop
  endfacet
  facet normal -0.0926946 -0.585254 0.805534
    outer loop
      vertex 1 0.54601 4.65101
      vertex 0.85971 0.56823 4.65101
      vertex 1 0.292893 4.46711
    endloop
  endfacet
  facet normal -0.148955 -0.940446 0.305572
    outer loop
      vertex 0.724665 0.152603 4.21399
      vertex 0.694788 0.0606527 3.91643
      vertex 1 0.108994 4.21399
    endloop
  endfacet
  facet normal -0.156434 -0.98768 0.00416949
    outer loop
      vertex 0.694788 0.0606527 3.91643
      vertex 0.690984 0.0489435 1
      vertex 1 0 1
    endloop
  endfacet
  facet normal -0.156435 -0.987688 0
    outer loop
      vertex 0.690984 0.0489435 0
      vertex 1 0 1
      vertex 0.690984 0.0489435 1
    endloop
  endfacet
  facet normal -0.156435 -0.987688 -0
    outer loop
      vertex 1 0 1
      vertex 0.690984 0.0489435 0
      vertex 1 0 0
    endloop
  endfacet
  facet normal 0.891011 -0.453982 0
    outer loop
      vertex 44.259 0.412215 1
      vertex 44.4011 0.690984 0
      vertex 44.4011 0.690984 1
    endloop
  endfacet
  facet normal 0.891011 -0.453982 0
    outer loop
      vertex 44.4011 0.690984 0
      vertex 44.259 0.412215 1
      vertex 44.259 0.412215 0
    endloop
  endfacet
  facet normal 0.707104 -0.70711 0
    outer loop
      vertex 44.0378 0.190984 0
      vertex 44.259 0.412215 1
      vertex 44.0378 0.190984 1
    endloop
  endfacet
  facet normal 0.707104 -0.70711 0
    outer loop
      vertex 44.259 0.412215 1
      vertex 44.0378 0.190984 0
      vertex 44.259 0.412215 0
    endloop
  endfacet
  facet normal 0.891003 -0.453978 0.00417055
    outer loop
      vertex 44.4011 0.690984 1
      vertex 44.2491 0.419452 3.91643
      vertex 44.259 0.412215 1
    endloop
  endfacet
  facet normal 0.453991 -0.890997 0.0041694
    outer loop
      vertex 44.0305 0.200944 3.91643
      vertex 43.759 0.0489435 1
      vertex 44.0378 0.190984 1
    endloop
  endfacet
  facet normal 0.453986 -0.890999 0.0041699
    outer loop
      vertex 44.0305 0.200944 3.91643
      vertex 43.7552 0.0606527 3.91643
      vertex 43.759 0.0489435 1
    endloop
  endfacet
  facet normal 0.156434 0.987688 -0
    outer loop
      vertex 43.759 4.71106 0
      vertex 43.45 4.76 1
      vertex 43.759 4.71106 1
    endloop
  endfacet
  facet normal 0.156434 0.987688 0
    outer loop
      vertex 43.45 4.76 1
      vertex 43.759 4.71106 0
      vertex 43.45 4.76 0
    endloop
  endfacet
  facet normal 0.987678 0.156443 0.00416885
    outer loop
      vertex 44.4011 4.06902 1
      vertex 44.3893 4.06521 3.91643
      vertex 44.45 3.76 1
    endloop
  endfacet
  facet normal 0.987687 0.156444 0
    outer loop
      vertex 44.45 3.76 1
      vertex 44.4011 4.06902 0
      vertex 44.4011 4.06902 1
    endloop
  endfacet
  facet normal 0.987687 0.156444 0
    outer loop
      vertex 44.4011 4.06902 0
      vertex 44.45 3.76 1
      vertex 44.45 3.76 0
    endloop
  endfacet
  facet normal 0.527964 0.269023 0.805532
    outer loop
      vertex 44.1225 3.97851 4.46711
      vertex 43.8173 4.02685 4.65101
      vertex 43.8818 3.90029 4.65101
    endloop
  endfacet
  facet normal -0 0.587785 0.809017
    outer loop
      vertex 4.46711 4.46711 4.46711
      vertex 43.45 4.21399 4.65101
      vertex 43.45 4.46711 4.46711
    endloop
  endfacet
  facet normal 0 0.587785 0.809017
    outer loop
      vertex 43.45 4.21399 4.65101
      vertex 4.46711 4.46711 4.46711
      vertex 4.21399 4.21399 4.65101
    endloop
  endfacet
  facet normal 0.0926977 0.585255 0.805533
    outer loop
      vertex 43.6685 4.4325 4.46711
      vertex 43.45 4.46711 4.46711
      vertex 43.5903 4.19177 4.65101
    endloop
  endfacet
  facet normal -0.587785 0 0.809017
    outer loop
      vertex 0.292893 18.05 4.46711
      vertex 0.54601 1 4.65101
      vertex 0.54601 18.05 4.65101
    endloop
  endfacet
  facet normal -0.587785 0 0.809017
    outer loop
      vertex 0.54601 1 4.65101
      vertex 0.292893 18.05 4.46711
      vertex 0.292893 1 4.46711
    endloop
  endfacet
  facet normal -0.585254 -0.0926946 0.805534
    outer loop
      vertex 0.54601 1 4.65101
      vertex 0.292893 1 4.46711
      vertex 0.56823 0.85971 4.65101
    endloop
  endfacet
  facet normal -0.98768 -0.156433 0.00416956
    outer loop
      vertex 0.0123119 1 3.91643
      vertex 0 1 1
      vertex 0.0606527 0.694788 3.91643
    endloop
  endfacet
  facet normal -0.999991 0 0.00422153
    outer loop
      vertex 0 1 1
      vertex 0.0123119 18.05 3.91643
      vertex 0 18.05 1
    endloop
  endfacet
  facet normal -0.999991 0 0.00422153
    outer loop
      vertex 0.0123119 18.05 3.91643
      vertex 0 1 1
      vertex 0.0123119 1 3.91643
    endloop
  endfacet
  facet normal -0.574495 -0.574495 0.583019
    outer loop
      vertex 0.427939 0.584373 4.46711
      vertex 0.47628 0.279161 4.21399
      vertex 0.584373 0.427939 4.46711
    endloop
  endfacet
  facet normal -0.574495 -0.574495 0.583019
    outer loop
      vertex 0.47628 0.279161 4.21399
      vertex 0.427939 0.584373 4.46711
      vertex 0.279161 0.47628 4.21399
    endloop
  endfacet
  facet normal -0.269013 -0.527967 0.805533
    outer loop
      vertex 0.733151 0.632714 4.65101
      vertex 0.584373 0.427939 4.46711
      vertex 0.781492 0.327502 4.46711
    endloop
  endfacet
  facet normal 0 -0.309019 0.951056
    outer loop
      vertex 1 0.843566 4.74769
      vertex 43.45 0.54601 4.65101
      vertex 43.45 0.843566 4.74769
    endloop
  endfacet
  facet normal 0 -0.309019 0.951056
    outer loop
      vertex 43.45 0.54601 4.65101
      vertex 1 0.843566 4.74769
      vertex 1 0.54601 4.65101
    endloop
  endfacet
  facet normal -0.0488851 -0.30865 0.949919
    outer loop
      vertex 0.951659 0.851222 4.74769
      vertex 0.85971 0.56823 4.65101
      vertex 1 0.54601 4.65101
    endloop
  endfacet
  facet normal -0.148952 -0.940447 0.305569
    outer loop
      vertex 1 0.108994 4.21399
      vertex 0.694788 0.0606527 3.91643
      vertex 1 0.0123119 3.91643
    endloop
  endfacet
  facet normal 0 -0.999991 0.00422153
    outer loop
      vertex 1 0 1
      vertex 43.45 0.0123119 3.91643
      vertex 1 0.0123119 3.91643
    endloop
  endfacet
  facet normal 0 -0.999991 0.00422153
    outer loop
      vertex 43.45 0.0123119 3.91643
      vertex 1 0 1
      vertex 43.45 0 1
    endloop
  endfacet
  facet normal -0.156433 -0.98768 0.00416956
    outer loop
      vertex 1 0.0123119 3.91643
      vertex 0.694788 0.0606527 3.91643
      vertex 1 0 1
    endloop
  endfacet
  facet normal -0.707107 -0.707107 0
    outer loop
      vertex 0.412215 0.190984 0
      vertex 0.190984 0.412215 1
      vertex 0.190984 0.412215 0
    endloop
  endfacet
  facet normal -0.707107 -0.707107 0
    outer loop
      vertex 0.190984 0.412215 1
      vertex 0.412215 0.190984 0
      vertex 0.412215 0.190984 1
    endloop
  endfacet
  facet normal -0.891006 -0.453992 0
    outer loop
      vertex 0.190984 0.412215 0
      vertex 0.0489435 0.690984 1
      vertex 0.0489435 0.690984 0
    endloop
  endfacet
  facet normal -0.891006 -0.453992 0
    outer loop
      vertex 0.0489435 0.690984 1
      vertex 0.190984 0.412215 0
      vertex 0.190984 0.412215 1
    endloop
  endfacet
  facet normal 1 -0 0
    outer loop
      vertex 44.45 1 1
      vertex 44.45 3.76 0
      vertex 44.45 3.76 1
    endloop
  endfacet
  facet normal 1 0 0
    outer loop
      vertex 44.45 3.76 0
      vertex 44.45 1 1
      vertex 44.45 1 0
    endloop
  endfacet
  facet normal 0.987687 -0.156444 0
    outer loop
      vertex 44.4011 0.690984 1
      vertex 44.45 1 0
      vertex 44.45 1 1
    endloop
  endfacet
  facet normal 0.987687 -0.156444 0
    outer loop
      vertex 44.45 1 0
      vertex 44.4011 0.690984 1
      vertex 44.4011 0.690984 0
    endloop
  endfacet
  facet normal 0.98768 0.15643 0.00417021
    outer loop
      vertex 44.45 3.76 1
      vertex 44.3893 4.06521 3.91643
      vertex 44.4377 3.76 3.91643
    endloop
  endfacet
  facet normal 0.940449 0.148949 0.305564
    outer loop
      vertex 44.3893 4.06521 3.91643
      vertex 44.341 3.76 4.21399
      vertex 44.4377 3.76 3.91643
    endloop
  endfacet
  facet normal 0.453994 -0.891005 0
    outer loop
      vertex 43.759 0.0489435 0
      vertex 44.0378 0.190984 1
      vertex 43.759 0.0489435 1
    endloop
  endfacet
  facet normal 0.453994 -0.891005 0
    outer loop
      vertex 44.0378 0.190984 1
      vertex 43.759 0.0489435 0
      vertex 44.0378 0.190984 0
    endloop
  endfacet
  facet normal 0.156434 -0.987688 0
    outer loop
      vertex 43.45 0 0
      vertex 43.759 0.0489435 1
      vertex 43.45 0 1
    endloop
  endfacet
  facet normal 0.156434 -0.987688 0
    outer loop
      vertex 43.759 0.0489435 1
      vertex 43.45 0 0
      vertex 43.759 0.0489435 0
    endloop
  endfacet
  facet normal 0.707104 -0.707098 0.00416939
    outer loop
      vertex 44.0378 0.190984 1
      vertex 44.2491 0.419452 3.91643
      vertex 44.0305 0.200944 3.91643
    endloop
  endfacet
  facet normal 0.707098 -0.707104 0.00417032
    outer loop
      vertex 44.2491 0.419452 3.91643
      vertex 44.0378 0.190984 1
      vertex 44.259 0.412215 1
    endloop
  endfacet
  facet normal 0.1271 0.802455 0.58302
    outer loop
      vertex 43.45 4.65101 4.21399
      vertex 43.45 4.46711 4.46711
      vertex 43.6685 4.4325 4.46711
    endloop
  endfacet
  facet normal 0.802452 0.127091 0.583026
    outer loop
      vertex 44.341 3.76 4.21399
      vertex 44.1225 3.97851 4.46711
      vertex 44.1571 3.76 4.46711
    endloop
  endfacet
  facet normal 0.148956 0.940446 0.305572
    outer loop
      vertex 43.7552 4.69935 3.91643
      vertex 43.45 4.65101 4.21399
      vertex 43.7253 4.6074 4.21399
    endloop
  endfacet
  facet normal -0 0.951057 0.309016
    outer loop
      vertex 4.74769 4.74769 3.91643
      vertex 43.45 4.65101 4.21399
      vertex 43.45 4.74769 3.91643
    endloop
  endfacet
  facet normal 0 0.951057 0.309016
    outer loop
      vertex 43.45 4.65101 4.21399
      vertex 4.74769 4.74769 3.91643
      vertex 4.65101 4.65101 4.21399
    endloop
  endfacet
  facet normal -0 0.809016 0.587786
    outer loop
      vertex 4.65101 4.65101 4.21399
      vertex 43.45 4.46711 4.46711
      vertex 43.45 4.65101 4.21399
    endloop
  endfacet
  facet normal 0 0.809016 0.587786
    outer loop
      vertex 43.45 4.46711 4.46711
      vertex 4.65101 4.65101 4.21399
      vertex 4.46711 4.46711 4.46711
    endloop
  endfacet
  facet normal -0.30865 -0.0488832 0.949919
    outer loop
      vertex 0.843566 1 4.74769
      vertex 0.54601 1 4.65101
      vertex 0.851222 0.951659 4.74769
    endloop
  endfacet
  facet normal -0.723906 -0.368849 0.583019
    outer loop
      vertex 0.327502 0.781492 4.46711
      vertex 0.152603 0.724665 4.21399
      vertex 0.279161 0.47628 4.21399
    endloop
  endfacet
  facet normal -0.848389 -0.432276 0.305572
    outer loop
      vertex 0.152603 0.724665 4.21399
      vertex 0.0606527 0.694788 3.91643
      vertex 0.279161 0.47628 4.21399
    endloop
  endfacet
  facet normal -0.220968 -0.220968 0.949919
    outer loop
      vertex 0.873443 0.908051 4.74769
      vertex 0.733151 0.632714 4.65101
      vertex 0.908051 0.873443 4.74769
    endloop
  endfacet
  facet normal -0.220968 -0.220968 0.949919
    outer loop
      vertex 0.733151 0.632714 4.65101
      vertex 0.873443 0.908051 4.74769
      vertex 0.632714 0.733151 4.65101
    endloop
  endfacet
  facet normal 0.308648 -0.0488829 0.949919
    outer loop
      vertex 43.6064 1 4.74769
      vertex 43.5988 0.951659 4.74769
      vertex 43.904 1 4.65101
    endloop
  endfacet
  facet normal 0.269011 -0.527968 0.805532
    outer loop
      vertex 43.7169 0.632714 4.65101
      vertex 43.6685 0.327502 4.46711
      vertex 43.8656 0.427939 4.46711
    endloop
  endfacet
  facet normal 0.148953 -0.940447 0.305569
    outer loop
      vertex 43.45 0.108994 4.21399
      vertex 43.45 0.0123119 3.91643
      vertex 43.7552 0.0606527 3.91643
    endloop
  endfacet
  facet normal 0.156434 -0.98768 0.00416956
    outer loop
      vertex 43.45 0.0123119 3.91643
      vertex 43.45 0 1
      vertex 43.7552 0.0606527 3.91643
    endloop
  endfacet
  facet normal -0.673285 -0.673285 0.305571
    outer loop
      vertex 0.200944 0.419452 3.91643
      vertex 0.47628 0.279161 4.21399
      vertex 0.279161 0.47628 4.21399
    endloop
  endfacet
  facet normal -0.673285 -0.673285 0.305571
    outer loop
      vertex 0.47628 0.279161 4.21399
      vertex 0.200944 0.419452 3.91643
      vertex 0.419452 0.200944 3.91643
    endloop
  endfacet
  facet normal 0 -0.809016 0.587786
    outer loop
      vertex 1 0.108994 4.21399
      vertex 43.45 0.292893 4.46711
      vertex 1 0.292893 4.46711
    endloop
  endfacet
  facet normal 0 -0.809016 0.587786
    outer loop
      vertex 43.45 0.292893 4.46711
      vertex 1 0.108994 4.21399
      vertex 43.45 0.108994 4.21399
    endloop
  endfacet
  facet normal 0 -0.587785 0.809017
    outer loop
      vertex 1 0.54601 4.65101
      vertex 43.45 0.292893 4.46711
      vertex 43.45 0.54601 4.65101
    endloop
  endfacet
  facet normal 0 -0.587785 0.809017
    outer loop
      vertex 43.45 0.292893 4.46711
      vertex 1 0.54601 4.65101
      vertex 1 0.292893 4.46711
    endloop
  endfacet
  facet normal 0 -1 0
    outer loop
      vertex 1 0 0
      vertex 43.45 0 1
      vertex 1 0 1
    endloop
  endfacet
  facet normal 0 -1 -0
    outer loop
      vertex 43.45 0 1
      vertex 1 0 0
      vertex 43.45 0 0
    endloop
  endfacet
  facet normal -0.707101 -0.707101 0.00416939
    outer loop
      vertex 0.190984 0.412215 1
      vertex 0.419452 0.200944 3.91643
      vertex 0.200944 0.419452 3.91643
    endloop
  endfacet
  facet normal -0.707101 -0.707101 0.00416939
    outer loop
      vertex 0.419452 0.200944 3.91643
      vertex 0.190984 0.412215 1
      vertex 0.412215 0.190984 1
    endloop
  endfacet
  facet normal -0.890998 -0.453988 0.0041694
    outer loop
      vertex 0.200944 0.419452 3.91643
      vertex 0.0489435 0.690984 1
      vertex 0.190984 0.412215 1
    endloop
  endfacet
  facet normal 0.848387 -0.432282 0.305569
    outer loop
      vertex 44.3893 0.694788 3.91643
      vertex 44.1708 0.47628 4.21399
      vertex 44.2491 0.419452 3.91643
    endloop
  endfacet
  facet normal 0.453986 0.890999 0.0041699
    outer loop
      vertex 43.759 4.71106 1
      vertex 43.7552 4.69935 3.91643
      vertex 44.0305 4.55906 3.91643
    endloop
  endfacet
  facet normal 0.809012 -0 0.587792
    outer loop
      vertex 44.1571 1 4.46711
      vertex 44.341 3.76 4.21399
      vertex 44.1571 3.76 4.46711
    endloop
  endfacet
  facet normal 0.809012 0 0.587792
    outer loop
      vertex 44.341 3.76 4.21399
      vertex 44.1571 1 4.46711
      vertex 44.341 1 4.21399
    endloop
  endfacet
  facet normal 0.951058 -0 0.309011
    outer loop
      vertex 44.341 1 4.21399
      vertex 44.4377 3.76 3.91643
      vertex 44.341 3.76 4.21399
    endloop
  endfacet
  facet normal 0.951058 0 0.309011
    outer loop
      vertex 44.4377 3.76 3.91643
      vertex 44.341 1 4.21399
      vertex 44.4377 1 3.91643
    endloop
  endfacet
  facet normal 0.432276 0.84839 0.30557
    outer loop
      vertex 44.0305 4.55906 3.91643
      vertex 43.7552 4.69935 3.91643
      vertex 43.9737 4.48084 4.21399
    endloop
  endfacet
  facet normal 0.141872 0.278435 0.949919
    outer loop
      vertex 43.7169 4.12729 4.65101
      vertex 43.4983 3.90878 4.74769
      vertex 43.542 3.88656 4.74769
    endloop
  endfacet
  facet normal 0.0926952 0.585254 0.805534
    outer loop
      vertex 43.45 4.46711 4.46711
      vertex 43.45 4.21399 4.65101
      vertex 43.5903 4.19177 4.65101
    endloop
  endfacet
  facet normal 0.141869 0.278438 0.949919
    outer loop
      vertex 43.5903 4.19177 4.65101
      vertex 43.4983 3.90878 4.74769
      vertex 43.7169 4.12729 4.65101
    endloop
  endfacet
  facet normal -0.527967 -0.269013 0.805533
    outer loop
      vertex 0.632714 0.733151 4.65101
      vertex 0.327502 0.781492 4.46711
      vertex 0.427939 0.584373 4.46711
    endloop
  endfacet
  facet normal -0.418997 -0.418997 0.805533
    outer loop
      vertex 0.632714 0.733151 4.65101
      vertex 0.584373 0.427939 4.46711
      vertex 0.733151 0.632714 4.65101
    endloop
  endfacet
  facet normal -0.418997 -0.418997 0.805533
    outer loop
      vertex 0.584373 0.427939 4.46711
      vertex 0.632714 0.733151 4.65101
      vertex 0.427939 0.584373 4.46711
    endloop
  endfacet
  facet normal -0.0488832 -0.30865 0.949919
    outer loop
      vertex 1 0.843566 4.74769
      vertex 0.951659 0.851222 4.74769
      vertex 1 0.54601 4.65101
    endloop
  endfacet
  facet normal 0.890996 -0.453992 0.00416887
    outer loop
      vertex 44.3893 0.694788 3.91643
      vertex 44.2491 0.419452 3.91643
      vertex 44.4011 0.690984 1
    endloop
  endfacet
  facet normal 0.574498 -0.574493 0.583018
    outer loop
      vertex 44.0221 0.584373 4.46711
      vertex 43.9737 0.279161 4.21399
      vertex 44.1708 0.47628 4.21399
    endloop
  endfacet
  facet normal 0.574497 -0.574493 0.583019
    outer loop
      vertex 43.9737 0.279161 4.21399
      vertex 44.0221 0.584373 4.46711
      vertex 43.8656 0.427939 4.46711
    endloop
  endfacet
  facet normal 0.432276 -0.84839 0.30557
    outer loop
      vertex 43.9737 0.279161 4.21399
      vertex 43.7552 0.0606527 3.91643
      vertex 44.0305 0.200944 3.91643
    endloop
  endfacet
  facet normal 0.673289 -0.673282 0.305569
    outer loop
      vertex 43.9737 0.279161 4.21399
      vertex 44.2491 0.419452 3.91643
      vertex 44.1708 0.47628 4.21399
    endloop
  endfacet
  facet normal 0.673289 -0.673283 0.305569
    outer loop
      vertex 44.2491 0.419452 3.91643
      vertex 43.9737 0.279161 4.21399
      vertex 44.0305 0.200944 3.91643
    endloop
  endfacet
  facet normal -0.453992 -0.891006 0
    outer loop
      vertex 0.412215 0.190984 0
      vertex 0.690984 0.0489435 1
      vertex 0.412215 0.190984 1
    endloop
  endfacet
  facet normal -0.453992 -0.891006 -0
    outer loop
      vertex 0.690984 0.0489435 1
      vertex 0.412215 0.190984 0
      vertex 0.690984 0.0489435 0
    endloop
  endfacet
  facet normal -0.453988 -0.890998 0.00416946
    outer loop
      vertex 0.694788 0.0606527 3.91643
      vertex 0.419452 0.200944 3.91643
      vertex 0.690984 0.0489435 1
    endloop
  endfacet
  facet normal -0.368849 -0.723906 0.583019
    outer loop
      vertex 0.781492 0.327502 4.46711
      vertex 0.47628 0.279161 4.21399
      vertex 0.724665 0.152603 4.21399
    endloop
  endfacet
  facet normal -0.127099 -0.802455 0.58302
    outer loop
      vertex 0.781492 0.327502 4.46711
      vertex 0.724665 0.152603 4.21399
      vertex 1 0.108994 4.21399
    endloop
  endfacet
  facet normal -0.127099 -0.802455 0.58302
    outer loop
      vertex 1 0.292893 4.46711
      vertex 0.781492 0.327502 4.46711
      vertex 1 0.108994 4.21399
    endloop
  endfacet
  facet normal 0.987678 -0.156443 0.00416885
    outer loop
      vertex 44.45 1 1
      vertex 44.3893 0.694788 3.91643
      vertex 44.4011 0.690984 1
    endloop
  endfacet
  facet normal 0.98768 -0.15643 0.00417021
    outer loop
      vertex 44.4377 1 3.91643
      vertex 44.3893 0.694788 3.91643
      vertex 44.45 1 1
    endloop
  endfacet
  facet normal 0.0926952 -0.585254 0.805534
    outer loop
      vertex 43.45 0.54601 4.65101
      vertex 43.45 0.292893 4.46711
      vertex 43.5903 0.56823 4.65101
    endloop
  endfacet
  facet normal 0.309017 0 0.951056
    outer loop
      vertex 43.6064 3.76 4.74769
      vertex 43.904 1 4.65101
      vertex 43.904 3.76 4.65101
    endloop
  endfacet
  facet normal 0.309017 0 0.951056
    outer loop
      vertex 43.904 1 4.65101
      vertex 43.6064 3.76 4.74769
      vertex 43.6064 1 4.74769
    endloop
  endfacet
  facet normal 0.308649 0.0488869 0.949919
    outer loop
      vertex 43.8818 3.90029 4.65101
      vertex 43.5988 3.80834 4.74769
      vertex 43.904 3.76 4.65101
    endloop
  endfacet
  facet normal 0.587791 0 0.809013
    outer loop
      vertex 43.904 3.76 4.65101
      vertex 44.1571 1 4.46711
      vertex 44.1571 3.76 4.46711
    endloop
  endfacet
  facet normal 0.587791 0 0.809013
    outer loop
      vertex 44.1571 1 4.46711
      vertex 43.904 3.76 4.65101
      vertex 43.904 1 4.65101
    endloop
  endfacet
  facet normal 0.453994 0.891005 -0
    outer loop
      vertex 44.0378 4.56902 0
      vertex 43.759 4.71106 1
      vertex 44.0378 4.56902 1
    endloop
  endfacet
  facet normal 0.453994 0.891005 0
    outer loop
      vertex 43.759 4.71106 1
      vertex 44.0378 4.56902 0
      vertex 43.759 4.71106 0
    endloop
  endfacet
  facet normal 0.673289 0.673283 0.305569
    outer loop
      vertex 43.9737 4.48084 4.21399
      vertex 44.2491 4.34055 3.91643
      vertex 44.0305 4.55906 3.91643
    endloop
  endfacet
  facet normal 0.673289 0.673282 0.305569
    outer loop
      vertex 44.2491 4.34055 3.91643
      vertex 43.9737 4.48084 4.21399
      vertex 44.1708 4.28372 4.21399
    endloop
  endfacet
  facet normal 0.707104 0.707098 0.00417032
    outer loop
      vertex 44.259 4.34778 1
      vertex 44.0305 4.55906 3.91643
      vertex 44.2491 4.34055 3.91643
    endloop
  endfacet
  facet normal 0.707098 0.707104 0.0041694
    outer loop
      vertex 44.0305 4.55906 3.91643
      vertex 44.259 4.34778 1
      vertex 44.0378 4.56902 1
    endloop
  endfacet
  facet normal 0.940447 0.148955 0.305569
    outer loop
      vertex 44.3893 4.06521 3.91643
      vertex 44.2974 4.03533 4.21399
      vertex 44.341 3.76 4.21399
    endloop
  endfacet
  facet normal 0.848387 0.432282 0.305569
    outer loop
      vertex 44.2491 4.34055 3.91643
      vertex 44.1708 4.28372 4.21399
      vertex 44.3893 4.06521 3.91643
    endloop
  endfacet
  facet normal 0.940449 -0.148949 0.305564
    outer loop
      vertex 44.4377 1 3.91643
      vertex 44.341 1 4.21399
      vertex 44.3893 0.694788 3.91643
    endloop
  endfacet
  facet normal 0.368846 0.723907 0.583019
    outer loop
      vertex 43.7253 4.6074 4.21399
      vertex 43.6685 4.4325 4.46711
      vertex 43.9737 4.48084 4.21399
    endloop
  endfacet
  facet normal 0.1271 0.802455 0.58302
    outer loop
      vertex 43.7253 4.6074 4.21399
      vertex 43.45 4.65101 4.21399
      vertex 43.6685 4.4325 4.46711
    endloop
  endfacet
  facet normal 0.0488854 0.30865 0.949919
    outer loop
      vertex 43.5903 4.19177 4.65101
      vertex 43.45 4.21399 4.65101
      vertex 43.4983 3.90878 4.74769
    endloop
  endfacet
  facet normal 0.0488842 0.30865 0.949919
    outer loop
      vertex 43.45 4.21399 4.65101
      vertex 43.45 3.91643 4.74769
      vertex 43.4983 3.90878 4.74769
    endloop
  endfacet
  facet normal 0.58526 0.0926995 0.805529
    outer loop
      vertex 44.1571 3.76 4.46711
      vertex 43.8818 3.90029 4.65101
      vertex 43.904 3.76 4.65101
    endloop
  endfacet
  facet normal 0.368846 0.723907 0.583019
    outer loop
      vertex 43.9737 4.48084 4.21399
      vertex 43.6685 4.4325 4.46711
      vertex 43.8656 4.33206 4.46711
    endloop
  endfacet
  facet normal -0.278437 -0.141871 0.949919
    outer loop
      vertex 0.851222 0.951659 4.74769
      vertex 0.56823 0.85971 4.65101
      vertex 0.632714 0.733151 4.65101
    endloop
  endfacet
  facet normal -0.527967 -0.269012 0.805533
    outer loop
      vertex 0.56823 0.85971 4.65101
      vertex 0.327502 0.781492 4.46711
      vertex 0.632714 0.733151 4.65101
    endloop
  endfacet
  facet normal -0.141875 -0.278434 0.949919
    outer loop
      vertex 0.908051 0.873443 4.74769
      vertex 0.733151 0.632714 4.65101
      vertex 0.951659 0.851222 4.74769
    endloop
  endfacet
  facet normal 0.585258 -0.0926923 0.805532
    outer loop
      vertex 44.1571 1 4.46711
      vertex 43.8818 0.85971 4.65101
      vertex 44.1225 0.781492 4.46711
    endloop
  endfacet
  facet normal 0.418996 -0.418994 0.805535
    outer loop
      vertex 43.8173 0.733151 4.65101
      vertex 43.8656 0.427939 4.46711
      vertex 44.0221 0.584373 4.46711
    endloop
  endfacet
  facet normal 0.419006 -0.41899 0.805532
    outer loop
      vertex 43.8656 0.427939 4.46711
      vertex 43.8173 0.733151 4.65101
      vertex 43.7169 0.632714 4.65101
    endloop
  endfacet
  facet normal 0.1271 -0.802455 0.58302
    outer loop
      vertex 43.45 0.292893 4.46711
      vertex 43.45 0.108994 4.21399
      vertex 43.6685 0.327502 4.46711
    endloop
  endfacet
  facet normal 0.368846 -0.723907 0.583019
    outer loop
      vertex 43.8656 0.427939 4.46711
      vertex 43.6685 0.327502 4.46711
      vertex 43.9737 0.279161 4.21399
    endloop
  endfacet
  facet normal 0.432273 -0.84839 0.305572
    outer loop
      vertex 43.9737 0.279161 4.21399
      vertex 43.7253 0.152603 4.21399
      vertex 43.7552 0.0606527 3.91643
    endloop
  endfacet
  facet normal 0.368846 -0.723907 0.583019
    outer loop
      vertex 43.9737 0.279161 4.21399
      vertex 43.6685 0.327502 4.46711
      vertex 43.7253 0.152603 4.21399
    endloop
  endfacet
  facet normal -0.453988 -0.890998 0.0041694
    outer loop
      vertex 0.419452 0.200944 3.91643
      vertex 0.412215 0.190984 1
      vertex 0.690984 0.0489435 1
    endloop
  endfacet
  facet normal -0.432277 -0.848389 0.305571
    outer loop
      vertex 0.47628 0.279161 4.21399
      vertex 0.419452 0.200944 3.91643
      vertex 0.694788 0.0606527 3.91643
    endloop
  endfacet
  facet normal -0.269012 -0.527967 0.805533
    outer loop
      vertex 0.85971 0.56823 4.65101
      vertex 0.733151 0.632714 4.65101
      vertex 0.781492 0.327502 4.46711
    endloop
  endfacet
  facet normal -0.0926969 -0.585255 0.805533
    outer loop
      vertex 0.85971 0.56823 4.65101
      vertex 0.781492 0.327502 4.46711
      vertex 1 0.292893 4.46711
    endloop
  endfacet
  facet normal 0.585258 0.0926923 0.805532
    outer loop
      vertex 44.1225 3.97851 4.46711
      vertex 43.8818 3.90029 4.65101
      vertex 44.1571 3.76 4.46711
    endloop
  endfacet
  facet normal 0.308648 0.0488829 0.949919
    outer loop
      vertex 43.904 3.76 4.65101
      vertex 43.5988 3.80834 4.74769
      vertex 43.6064 3.76 4.74769
    endloop
  endfacet
  facet normal 0.269011 0.527968 0.805532
    outer loop
      vertex 43.8656 4.33206 4.46711
      vertex 43.6685 4.4325 4.46711
      vertex 43.7169 4.12729 4.65101
    endloop
  endfacet
  facet normal 0.848387 0.432282 0.305569
    outer loop
      vertex 44.3893 4.06521 3.91643
      vertex 44.1708 4.28372 4.21399
      vertex 44.2974 4.03533 4.21399
    endloop
  endfacet
  facet normal 0.723907 -0.368849 0.583017
    outer loop
      vertex 44.1225 0.781492 4.46711
      vertex 44.0221 0.584373 4.46711
      vertex 44.1708 0.47628 4.21399
    endloop
  endfacet
  facet normal 0.723903 -0.368853 0.58302
    outer loop
      vertex 44.2974 0.724665 4.21399
      vertex 44.1225 0.781492 4.46711
      vertex 44.1708 0.47628 4.21399
    endloop
  endfacet
  facet normal 0.269009 0.527968 0.805533
    outer loop
      vertex 43.6685 4.4325 4.46711
      vertex 43.5903 4.19177 4.65101
      vertex 43.7169 4.12729 4.65101
    endloop
  endfacet
  facet normal 0.278435 0.141876 0.949919
    outer loop
      vertex 43.8173 4.02685 4.65101
      vertex 43.5988 3.80834 4.74769
      vertex 43.8818 3.90029 4.65101
    endloop
  endfacet
  facet normal 0.220973 0.220965 0.949919
    outer loop
      vertex 43.7169 4.12729 4.65101
      vertex 43.5766 3.85195 4.74769
      vertex 43.8173 4.02685 4.65101
    endloop
  endfacet
  facet normal 0.220972 0.220965 0.949919
    outer loop
      vertex 43.5766 3.85195 4.74769
      vertex 43.7169 4.12729 4.65101
      vertex 43.542 3.88656 4.74769
    endloop
  endfacet
  facet normal -0.278434 -0.141875 0.949919
    outer loop
      vertex 0.851222 0.951659 4.74769
      vertex 0.632714 0.733151 4.65101
      vertex 0.873443 0.908051 4.74769
    endloop
  endfacet
  facet normal 0.802452 -0.127091 0.583026
    outer loop
      vertex 44.1571 1 4.46711
      vertex 44.1225 0.781492 4.46711
      vertex 44.341 1 4.21399
    endloop
  endfacet
  facet normal 0.58526 -0.0926995 0.805529
    outer loop
      vertex 43.904 1 4.65101
      vertex 43.8818 0.85971 4.65101
      vertex 44.1571 1 4.46711
    endloop
  endfacet
  facet normal 0.278435 -0.141875 0.949919
    outer loop
      vertex 43.5988 0.951659 4.74769
      vertex 43.5766 0.908051 4.74769
      vertex 43.8173 0.733151 4.65101
    endloop
  endfacet
  facet normal 0.0488854 -0.30865 0.949919
    outer loop
      vertex 43.4983 0.851222 4.74769
      vertex 43.45 0.54601 4.65101
      vertex 43.5903 0.56823 4.65101
    endloop
  endfacet
  facet normal 0.0926977 -0.585255 0.805533
    outer loop
      vertex 43.5903 0.56823 4.65101
      vertex 43.45 0.292893 4.46711
      vertex 43.6685 0.327502 4.46711
    endloop
  endfacet
  facet normal 0.1271 -0.802455 0.58302
    outer loop
      vertex 43.6685 0.327502 4.46711
      vertex 43.45 0.108994 4.21399
      vertex 43.7253 0.152603 4.21399
    endloop
  endfacet
  facet normal 0.148956 -0.940446 0.305572
    outer loop
      vertex 43.7253 0.152603 4.21399
      vertex 43.45 0.108994 4.21399
      vertex 43.7552 0.0606527 3.91643
    endloop
  endfacet
  facet normal 0.527964 0.269012 0.805535
    outer loop
      vertex 44.0221 4.17563 4.46711
      vertex 43.8173 4.02685 4.65101
      vertex 44.1225 3.97851 4.46711
    endloop
  endfacet
  facet normal 0.723903 0.368853 0.58302
    outer loop
      vertex 44.1708 4.28372 4.21399
      vertex 44.1225 3.97851 4.46711
      vertex 44.2974 4.03533 4.21399
    endloop
  endfacet
  facet normal 0.802454 0.127098 0.583022
    outer loop
      vertex 44.2974 4.03533 4.21399
      vertex 44.1225 3.97851 4.46711
      vertex 44.341 3.76 4.21399
    endloop
  endfacet
  facet normal 0.723907 0.368849 0.583017
    outer loop
      vertex 44.1708 4.28372 4.21399
      vertex 44.0221 4.17563 4.46711
      vertex 44.1225 3.97851 4.46711
    endloop
  endfacet
  facet normal 0.848387 -0.432282 0.305569
    outer loop
      vertex 44.2974 0.724665 4.21399
      vertex 44.1708 0.47628 4.21399
      vertex 44.3893 0.694788 3.91643
    endloop
  endfacet
  facet normal 0.802454 -0.127098 0.583022
    outer loop
      vertex 44.341 1 4.21399
      vertex 44.1225 0.781492 4.46711
      vertex 44.2974 0.724665 4.21399
    endloop
  endfacet
  facet normal 0.527964 -0.269023 0.805532
    outer loop
      vertex 43.8818 0.85971 4.65101
      vertex 43.8173 0.733151 4.65101
      vertex 44.1225 0.781492 4.46711
    endloop
  endfacet
  facet normal 0.527964 -0.269012 0.805535
    outer loop
      vertex 44.1225 0.781492 4.46711
      vertex 43.8173 0.733151 4.65101
      vertex 44.0221 0.584373 4.46711
    endloop
  endfacet
  facet normal 0.278435 -0.141876 0.949919
    outer loop
      vertex 43.8818 0.85971 4.65101
      vertex 43.5988 0.951659 4.74769
      vertex 43.8173 0.733151 4.65101
    endloop
  endfacet
  facet normal 0.308649 -0.0488869 0.949919
    outer loop
      vertex 43.904 1 4.65101
      vertex 43.5988 0.951659 4.74769
      vertex 43.8818 0.85971 4.65101
    endloop
  endfacet
  facet normal 0.141869 -0.278438 0.949919
    outer loop
      vertex 43.7169 0.632714 4.65101
      vertex 43.4983 0.851222 4.74769
      vertex 43.5903 0.56823 4.65101
    endloop
  endfacet
  facet normal 0.0488842 -0.30865 0.949919
    outer loop
      vertex 43.45 0.843566 4.74769
      vertex 43.45 0.54601 4.65101
      vertex 43.4983 0.851222 4.74769
    endloop
  endfacet
  facet normal 0.418996 0.418994 0.805535
    outer loop
      vertex 43.8656 4.33206 4.46711
      vertex 43.8173 4.02685 4.65101
      vertex 44.0221 4.17563 4.46711
    endloop
  endfacet
  facet normal 0.419006 0.41899 0.805532
    outer loop
      vertex 43.8173 4.02685 4.65101
      vertex 43.8656 4.33206 4.46711
      vertex 43.7169 4.12729 4.65101
    endloop
  endfacet
  facet normal 0.574498 0.574493 0.583018
    outer loop
      vertex 43.9737 4.48084 4.21399
      vertex 44.0221 4.17563 4.46711
      vertex 44.1708 4.28372 4.21399
    endloop
  endfacet
  facet normal 0.574497 0.574493 0.583019
    outer loop
      vertex 44.0221 4.17563 4.46711
      vertex 43.9737 4.48084 4.21399
      vertex 43.8656 4.33206 4.46711
    endloop
  endfacet
  facet normal 0.278435 0.141875 0.949919
    outer loop
      vertex 43.8173 4.02685 4.65101
      vertex 43.5766 3.85195 4.74769
      vertex 43.5988 3.80834 4.74769
    endloop
  endfacet
  facet normal 0.141872 -0.278435 0.949919
    outer loop
      vertex 43.542 0.873443 4.74769
      vertex 43.4983 0.851222 4.74769
      vertex 43.7169 0.632714 4.65101
    endloop
  endfacet
  facet normal 0.220973 -0.220965 0.949919
    outer loop
      vertex 43.5766 0.908051 4.74769
      vertex 43.7169 0.632714 4.65101
      vertex 43.8173 0.733151 4.65101
    endloop
  endfacet
  facet normal 0.220972 -0.220965 0.949919
    outer loop
      vertex 43.7169 0.632714 4.65101
      vertex 43.5766 0.908051 4.74769
      vertex 43.542 0.873443 4.74769
    endloop
  endfacet
  facet normal 0.891009 0.453985 0
    outer loop
      vertex 44.4011 18.359 1
      vertex 44.259 18.6378 0
      vertex 44.259 18.6378 1
    endloop
  endfacet
  facet normal 0.891009 0.453985 0
    outer loop
      vertex 44.259 18.6378 0
      vertex 44.4011 18.359 1
      vertex 44.4011 18.359 0
    endloop
  endfacet
  facet normal 0 1 -0
    outer loop
      vertex 43.45 19.05 0
      vertex 1 19.05 1
      vertex 43.45 19.05 1
    endloop
  endfacet
  facet normal 0 1 0
    outer loop
      vertex 1 19.05 1
      vertex 43.45 19.05 0
      vertex 1 19.05 0
    endloop
  endfacet
  facet normal -0.673288 0.673282 0.305573
    outer loop
      vertex 0.200944 18.6305 3.91643
      vertex 0.47628 18.7708 4.21399
      vertex 0.419452 18.8491 3.91643
    endloop
  endfacet
  facet normal -0.673286 0.673286 0.305569
    outer loop
      vertex 0.47628 18.7708 4.21399
      vertex 0.200944 18.6305 3.91643
      vertex 0.279161 18.5737 4.21399
    endloop
  endfacet
  facet normal 0.453991 0.890997 0.0041694
    outer loop
      vertex 44.0378 18.859 1
      vertex 43.759 19.0011 1
      vertex 44.0305 18.8491 3.91643
    endloop
  endfacet
  facet normal 0 -0.309019 0.951056
    outer loop
      vertex 43.45 15.1336 4.74769
      vertex 4.21399 14.836 4.65101
      vertex 43.45 14.836 4.65101
    endloop
  endfacet
  facet normal 0 -0.309019 0.951056
    outer loop
      vertex 4.21399 14.836 4.65101
      vertex 43.45 15.1336 4.74769
      vertex 3.91643 15.1336 4.74769
    endloop
  endfacet
  facet normal -0 0.309017 0.951056
    outer loop
      vertex 1 18.504 4.65101
      vertex 43.45 18.2064 4.74769
      vertex 43.45 18.504 4.65101
    endloop
  endfacet
  facet normal 0 0.309017 0.951056
    outer loop
      vertex 43.45 18.2064 4.74769
      vertex 1 18.504 4.65101
      vertex 1 18.2064 4.74769
    endloop
  endfacet
  facet normal 0.15643 0.98768 0.00417029
    outer loop
      vertex 43.759 19.0011 1
      vertex 43.45 19.05 1
      vertex 43.7552 18.9893 3.91643
    endloop
  endfacet
  facet normal 0.156433 -0.98768 0.00416965
    outer loop
      vertex 43.7552 14.3507 3.91643
      vertex 43.45 14.29 1
      vertex 43.759 14.3389 1
    endloop
  endfacet
  facet normal 0.156437 0.987679 0.00416956
    outer loop
      vertex 43.45 19.05 1
      vertex 43.45 19.0377 3.91643
      vertex 43.7552 18.9893 3.91643
    endloop
  endfacet
  facet normal 0.987678 0.156442 0.00416891
    outer loop
      vertex 44.4011 18.359 1
      vertex 44.3893 18.3552 3.91643
      vertex 44.45 18.05 1
    endloop
  endfacet
  facet normal 0.574498 -0.574493 0.583018
    outer loop
      vertex 44.0221 14.8744 4.46711
      vertex 43.9737 14.5692 4.21399
      vertex 44.1708 14.7663 4.21399
    endloop
  endfacet
  facet normal 0.574497 -0.574493 0.583019
    outer loop
      vertex 43.9737 14.5692 4.21399
      vertex 44.0221 14.8744 4.46711
      vertex 43.8656 14.7179 4.46711
    endloop
  endfacet
  facet normal 0.848387 -0.432282 0.305569
    outer loop
      vertex 44.2974 15.0147 4.21399
      vertex 44.1708 14.7663 4.21399
      vertex 44.3893 14.9848 3.91643
    endloop
  endfacet
  facet normal 0 0.999991 0.00422153
    outer loop
      vertex 43.45 19.05 1
      vertex 1 19.0377 3.91643
      vertex 43.45 19.0377 3.91643
    endloop
  endfacet
  facet normal 0 0.999991 0.00422153
    outer loop
      vertex 1 19.0377 3.91643
      vertex 43.45 19.05 1
      vertex 1 19.05 1
    endloop
  endfacet
  facet normal -0.891005 0.453994 0
    outer loop
      vertex 0.0489435 18.359 0
      vertex 0.190984 18.6378 1
      vertex 0.190984 18.6378 0
    endloop
  endfacet
  facet normal -0.891005 0.453994 0
    outer loop
      vertex 0.190984 18.6378 1
      vertex 0.0489435 18.359 0
      vertex 0.0489435 18.359 1
    endloop
  endfacet
  facet normal 0.156434 -0.987688 0
    outer loop
      vertex 43.45 14.29 0
      vertex 43.759 14.3389 1
      vertex 43.45 14.29 1
    endloop
  endfacet
  facet normal 0.156434 -0.987688 0
    outer loop
      vertex 43.759 14.3389 1
      vertex 43.45 14.29 0
      vertex 43.759 14.3389 0
    endloop
  endfacet
  facet normal 0.453994 0.891005 -0
    outer loop
      vertex 44.0378 18.859 0
      vertex 43.759 19.0011 1
      vertex 44.0378 18.859 1
    endloop
  endfacet
  facet normal 0.453994 0.891005 0
    outer loop
      vertex 43.759 19.0011 1
      vertex 44.0378 18.859 0
      vertex 43.759 19.0011 0
    endloop
  endfacet
  facet normal 0.148956 0.940447 0.305569
    outer loop
      vertex 43.45 19.0377 3.91643
      vertex 43.45 18.941 4.21399
      vertex 43.7552 18.9893 3.91643
    endloop
  endfacet
  facet normal 0.432271 0.848391 0.305572
    outer loop
      vertex 44.0305 18.8491 3.91643
      vertex 43.7552 18.9893 3.91643
      vertex 43.9737 18.7708 4.21399
    endloop
  endfacet
  facet normal -0.30865 0.0488842 0.949919
    outer loop
      vertex 0.851222 18.0983 4.74769
      vertex 0.54601 18.05 4.65101
      vertex 0.843566 18.05 4.74769
    endloop
  endfacet
  facet normal -0.98768 0.156433 0.00416956
    outer loop
      vertex 0.0606527 18.3552 3.91643
      vertex 0 18.05 1
      vertex 0.0123119 18.05 3.91643
    endloop
  endfacet
  facet normal -0.156432 0.987689 0
    outer loop
      vertex 1 19.05 0
      vertex 0.690984 19.0011 1
      vertex 1 19.05 1
    endloop
  endfacet
  facet normal -0.156432 0.987689 0
    outer loop
      vertex 0.690984 19.0011 1
      vertex 1 19.05 0
      vertex 0.690984 19.0011 0
    endloop
  endfacet
  facet normal -0.802455 0.127099 0.58302
    outer loop
      vertex 0.327502 18.2685 4.46711
      vertex 0.108994 18.05 4.21399
      vertex 0.292893 18.05 4.46711
    endloop
  endfacet
  facet normal -0.0488869 0.308649 0.949919
    outer loop
      vertex 1 18.504 4.65101
      vertex 0.85971 18.4818 4.65101
      vertex 0.951659 18.1988 4.74769
    endloop
  endfacet
  facet normal 0.707104 -0.707098 0.00416939
    outer loop
      vertex 44.0378 14.481 1
      vertex 44.2491 14.7095 3.91643
      vertex 44.0305 14.4909 3.91643
    endloop
  endfacet
  facet normal 0.707098 -0.707104 0.00417032
    outer loop
      vertex 44.2491 14.7095 3.91643
      vertex 44.0378 14.481 1
      vertex 44.259 14.7022 1
    endloop
  endfacet
  facet normal 0 -0.951057 0.309016
    outer loop
      vertex 4.74769 14.3023 3.91643
      vertex 43.45 14.399 4.21399
      vertex 4.65101 14.399 4.21399
    endloop
  endfacet
  facet normal 0 -0.951057 0.309016
    outer loop
      vertex 43.45 14.399 4.21399
      vertex 4.74769 14.3023 3.91643
      vertex 43.45 14.3023 3.91643
    endloop
  endfacet
  facet normal 0.987687 -0.156444 0
    outer loop
      vertex 44.4011 14.981 1
      vertex 44.45 15.29 0
      vertex 44.45 15.29 1
    endloop
  endfacet
  facet normal 0.987687 -0.156444 0
    outer loop
      vertex 44.45 15.29 0
      vertex 44.4011 14.981 1
      vertex 44.4011 14.981 0
    endloop
  endfacet
  facet normal 0.848387 -0.432282 0.305569
    outer loop
      vertex 44.3893 14.9848 3.91643
      vertex 44.1708 14.7663 4.21399
      vertex 44.2491 14.7095 3.91643
    endloop
  endfacet
  facet normal 0.891011 -0.453982 0
    outer loop
      vertex 44.259 14.7022 1
      vertex 44.4011 14.981 0
      vertex 44.4011 14.981 1
    endloop
  endfacet
  facet normal 0.891011 -0.453982 0
    outer loop
      vertex 44.4011 14.981 0
      vertex 44.259 14.7022 1
      vertex 44.259 14.7022 0
    endloop
  endfacet
  facet normal 0.453991 -0.890997 0.0041694
    outer loop
      vertex 44.0305 14.4909 3.91643
      vertex 43.759 14.3389 1
      vertex 44.0378 14.481 1
    endloop
  endfacet
  facet normal 0.453986 -0.890999 0.0041699
    outer loop
      vertex 44.0305 14.4909 3.91643
      vertex 43.7552 14.3507 3.91643
      vertex 43.759 14.3389 1
    endloop
  endfacet
  facet normal 0.156432 0.987689 -0
    outer loop
      vertex 43.759 19.0011 0
      vertex 43.45 19.05 1
      vertex 43.759 19.0011 1
    endloop
  endfacet
  facet normal 0.156432 0.987689 0
    outer loop
      vertex 43.45 19.05 1
      vertex 43.759 19.0011 0
      vertex 43.45 19.05 0
    endloop
  endfacet
  facet normal 0.891002 0.453981 0.00417056
    outer loop
      vertex 44.259 18.6378 1
      vertex 44.2491 18.6305 3.91643
      vertex 44.4011 18.359 1
    endloop
  endfacet
  facet normal 0.987687 0.156443 0
    outer loop
      vertex 44.45 18.05 1
      vertex 44.4011 18.359 0
      vertex 44.4011 18.359 1
    endloop
  endfacet
  facet normal 0.987687 0.156443 0
    outer loop
      vertex 44.4011 18.359 0
      vertex 44.45 18.05 1
      vertex 44.45 18.05 0
    endloop
  endfacet
  facet normal 0.148956 0.940447 0.305569
    outer loop
      vertex 43.7552 18.9893 3.91643
      vertex 43.45 18.941 4.21399
      vertex 43.7253 18.8974 4.21399
    endloop
  endfacet
  facet normal -0 0.587785 0.809017
    outer loop
      vertex 1 18.7571 4.46711
      vertex 43.45 18.504 4.65101
      vertex 43.45 18.7571 4.46711
    endloop
  endfacet
  facet normal 0 0.587785 0.809017
    outer loop
      vertex 43.45 18.504 4.65101
      vertex 1 18.7571 4.46711
      vertex 1 18.504 4.65101
    endloop
  endfacet
  facet normal 0.527965 0.269019 0.805532
    outer loop
      vertex 44.1225 18.2685 4.46711
      vertex 43.8173 18.3168 4.65101
      vertex 43.8818 18.1903 4.65101
    endloop
  endfacet
  facet normal -0.940447 0.148952 0.305569
    outer loop
      vertex 0.0606527 18.3552 3.91643
      vertex 0.0123119 18.05 3.91643
      vertex 0.108994 18.05 4.21399
    endloop
  endfacet
  facet normal -0.453983 0.891001 0.00417004
    outer loop
      vertex 0.690984 19.0011 1
      vertex 0.419452 18.8491 3.91643
      vertex 0.694788 18.9893 3.91643
    endloop
  endfacet
  facet normal -0.432276 0.848389 0.305569
    outer loop
      vertex 0.694788 18.9893 3.91643
      vertex 0.47628 18.7708 4.21399
      vertex 0.724665 18.8974 4.21399
    endloop
  endfacet
  facet normal -0.848388 0.432278 0.30557
    outer loop
      vertex 0.200944 18.6305 3.91643
      vertex 0.0606527 18.3552 3.91643
      vertex 0.279161 18.5737 4.21399
    endloop
  endfacet
  facet normal -0.527967 0.269008 0.805534
    outer loop
      vertex 0.632714 18.3168 4.65101
      vertex 0.327502 18.2685 4.46711
      vertex 0.56823 18.1903 4.65101
    endloop
  endfacet
  facet normal 0.308648 -0.0488829 0.949919
    outer loop
      vertex 43.6064 15.29 4.74769
      vertex 43.5988 15.2417 4.74769
      vertex 43.904 15.29 4.65101
    endloop
  endfacet
  facet normal 0 -0.999991 0.00422153
    outer loop
      vertex 4.76 14.29 1
      vertex 43.45 14.3023 3.91643
      vertex 4.74769 14.3023 3.91643
    endloop
  endfacet
  facet normal 0 -0.999991 0.00422153
    outer loop
      vertex 43.45 14.3023 3.91643
      vertex 4.76 14.29 1
      vertex 43.45 14.29 1
    endloop
  endfacet
  facet normal 1 -0 0
    outer loop
      vertex 44.45 15.29 1
      vertex 44.45 18.05 0
      vertex 44.45 18.05 1
    endloop
  endfacet
  facet normal 1 0 0
    outer loop
      vertex 44.45 18.05 0
      vertex 44.45 15.29 1
      vertex 44.45 15.29 0
    endloop
  endfacet
  facet normal 0.707104 -0.70711 0
    outer loop
      vertex 44.0378 14.481 0
      vertex 44.259 14.7022 1
      vertex 44.0378 14.481 1
    endloop
  endfacet
  facet normal 0.707104 -0.70711 0
    outer loop
      vertex 44.259 14.7022 1
      vertex 44.0378 14.481 0
      vertex 44.259 14.7022 0
    endloop
  endfacet
  facet normal 0.999991 -0 0.00422219
    outer loop
      vertex 44.4377 15.29 3.91643
      vertex 44.45 18.05 1
      vertex 44.4377 18.05 3.91643
    endloop
  endfacet
  facet normal 0.999991 0 0.00422219
    outer loop
      vertex 44.45 18.05 1
      vertex 44.4377 15.29 3.91643
      vertex 44.45 15.29 1
    endloop
  endfacet
  facet normal 0.940449 0.148949 0.305564
    outer loop
      vertex 44.3893 18.3552 3.91643
      vertex 44.341 18.05 4.21399
      vertex 44.4377 18.05 3.91643
    endloop
  endfacet
  facet normal 0.453994 -0.891005 0
    outer loop
      vertex 43.759 14.3389 0
      vertex 44.0378 14.481 1
      vertex 43.759 14.3389 1
    endloop
  endfacet
  facet normal 0.453994 -0.891005 0
    outer loop
      vertex 44.0378 14.481 1
      vertex 43.759 14.3389 0
      vertex 44.0378 14.481 0
    endloop
  endfacet
  facet normal 0.453981 0.891001 0.00417049
    outer loop
      vertex 43.759 19.0011 1
      vertex 43.7552 18.9893 3.91643
      vertex 44.0305 18.8491 3.91643
    endloop
  endfacet
  facet normal 0.127107 0.802456 0.583017
    outer loop
      vertex 43.45 18.941 4.21399
      vertex 43.45 18.7571 4.46711
      vertex 43.6685 18.7225 4.46711
    endloop
  endfacet
  facet normal 0.802452 0.127091 0.583026
    outer loop
      vertex 44.341 18.05 4.21399
      vertex 44.1225 18.2685 4.46711
      vertex 44.1571 18.05 4.46711
    endloop
  endfacet
  facet normal 0.890995 0.453994 0.00416902
    outer loop
      vertex 44.4011 18.359 1
      vertex 44.2491 18.6305 3.91643
      vertex 44.3893 18.3552 3.91643
    endloop
  endfacet
  facet normal 0.432274 0.848391 0.305569
    outer loop
      vertex 43.7552 18.9893 3.91643
      vertex 43.7253 18.8974 4.21399
      vertex 43.9737 18.7708 4.21399
    endloop
  endfacet
  facet normal 0 0.951057 0.309016
    outer loop
      vertex 43.45 19.0377 3.91643
      vertex 1 18.941 4.21399
      vertex 43.45 18.941 4.21399
    endloop
  endfacet
  facet normal 0 0.951057 0.309016
    outer loop
      vertex 1 18.941 4.21399
      vertex 43.45 19.0377 3.91643
      vertex 1 19.0377 3.91643
    endloop
  endfacet
  facet normal -0.156436 0.987679 0.00416956
    outer loop
      vertex 1 19.05 1
      vertex 0.694788 18.9893 3.91643
      vertex 1 19.0377 3.91643
    endloop
  endfacet
  facet normal -0.156431 0.98768 0.00417014
    outer loop
      vertex 1 19.05 1
      vertex 0.690984 19.0011 1
      vertex 0.694788 18.9893 3.91643
    endloop
  endfacet
  facet normal 0 0.809018 0.587784
    outer loop
      vertex 43.45 18.941 4.21399
      vertex 1 18.7571 4.46711
      vertex 43.45 18.7571 4.46711
    endloop
  endfacet
  facet normal 0 0.809018 0.587784
    outer loop
      vertex 1 18.7571 4.46711
      vertex 43.45 18.941 4.21399
      vertex 1 18.941 4.21399
    endloop
  endfacet
  facet normal -0.940446 0.148955 0.305572
    outer loop
      vertex 0.152603 18.3253 4.21399
      vertex 0.0606527 18.3552 3.91643
      vertex 0.108994 18.05 4.21399
    endloop
  endfacet
  facet normal -0.802455 0.127099 0.58302
    outer loop
      vertex 0.152603 18.3253 4.21399
      vertex 0.108994 18.05 4.21399
      vertex 0.327502 18.2685 4.46711
    endloop
  endfacet
  facet normal -0.723906 0.368849 0.583019
    outer loop
      vertex 0.279161 18.5737 4.21399
      vertex 0.152603 18.3253 4.21399
      vertex 0.327502 18.2685 4.46711
    endloop
  endfacet
  facet normal -0.848389 0.432276 0.305572
    outer loop
      vertex 0.279161 18.5737 4.21399
      vertex 0.0606527 18.3552 3.91643
      vertex 0.152603 18.3253 4.21399
    endloop
  endfacet
  facet normal -0.585255 0.0926969 0.805533
    outer loop
      vertex 0.327502 18.2685 4.46711
      vertex 0.292893 18.05 4.46711
      vertex 0.56823 18.1903 4.65101
    endloop
  endfacet
  facet normal 0.148953 -0.940447 0.305569
    outer loop
      vertex 43.45 14.399 4.21399
      vertex 43.45 14.3023 3.91643
      vertex 43.7552 14.3507 3.91643
    endloop
  endfacet
  facet normal 0.156434 -0.98768 0.00416956
    outer loop
      vertex 43.45 14.3023 3.91643
      vertex 43.45 14.29 1
      vertex 43.7552 14.3507 3.91643
    endloop
  endfacet
  facet normal 0 -0.809016 0.587786
    outer loop
      vertex 4.65101 14.399 4.21399
      vertex 43.45 14.5829 4.46711
      vertex 4.46711 14.5829 4.46711
    endloop
  endfacet
  facet normal 0 -0.809016 0.587786
    outer loop
      vertex 43.45 14.5829 4.46711
      vertex 4.65101 14.399 4.21399
      vertex 43.45 14.399 4.21399
    endloop
  endfacet
  facet normal 0 -0.587785 0.809017
    outer loop
      vertex 43.45 14.836 4.65101
      vertex 4.46711 14.5829 4.46711
      vertex 43.45 14.5829 4.46711
    endloop
  endfacet
  facet normal 0 -0.587785 0.809017
    outer loop
      vertex 4.46711 14.5829 4.46711
      vertex 43.45 14.836 4.65101
      vertex 4.21399 14.836 4.65101
    endloop
  endfacet
  facet normal 0 -1 0
    outer loop
      vertex 4.76 14.29 0
      vertex 43.45 14.29 1
      vertex 4.76 14.29 1
    endloop
  endfacet
  facet normal 0 -1 -0
    outer loop
      vertex 43.45 14.29 1
      vertex 4.76 14.29 0
      vertex 43.45 14.29 0
    endloop
  endfacet
  facet normal 0.98768 0.15643 0.00417021
    outer loop
      vertex 44.45 18.05 1
      vertex 44.3893 18.3552 3.91643
      vertex 44.4377 18.05 3.91643
    endloop
  endfacet
  facet normal 0.890996 -0.453992 0.00416887
    outer loop
      vertex 44.3893 14.9848 3.91643
      vertex 44.2491 14.7095 3.91643
      vertex 44.4011 14.981 1
    endloop
  endfacet
  facet normal 0.891003 -0.453978 0.00417055
    outer loop
      vertex 44.4011 14.981 1
      vertex 44.2491 14.7095 3.91643
      vertex 44.259 14.7022 1
    endloop
  endfacet
  facet normal 0.707107 0.707107 0
    outer loop
      vertex 44.259 18.6378 1
      vertex 44.0378 18.859 0
      vertex 44.0378 18.859 1
    endloop
  endfacet
  facet normal 0.707107 0.707107 0
    outer loop
      vertex 44.0378 18.859 0
      vertex 44.259 18.6378 1
      vertex 44.259 18.6378 0
    endloop
  endfacet
  facet normal 0.809012 -0 0.587792
    outer loop
      vertex 44.1571 15.29 4.46711
      vertex 44.341 18.05 4.21399
      vertex 44.1571 18.05 4.46711
    endloop
  endfacet
  facet normal 0.809012 0 0.587792
    outer loop
      vertex 44.341 18.05 4.21399
      vertex 44.1571 15.29 4.46711
      vertex 44.341 15.29 4.21399
    endloop
  endfacet
  facet normal 0.951058 -0 0.309011
    outer loop
      vertex 44.341 15.29 4.21399
      vertex 44.4377 18.05 3.91643
      vertex 44.341 18.05 4.21399
    endloop
  endfacet
  facet normal 0.951058 0 0.309011
    outer loop
      vertex 44.4377 18.05 3.91643
      vertex 44.341 15.29 4.21399
      vertex 44.4377 15.29 3.91643
    endloop
  endfacet
  facet normal 0.0927029 0.585255 0.805532
    outer loop
      vertex 43.6685 18.7225 4.46711
      vertex 43.45 18.7571 4.46711
      vertex 43.5903 18.4818 4.65101
    endloop
  endfacet
  facet normal 0.141871 0.278433 0.94992
    outer loop
      vertex 43.7169 18.4173 4.65101
      vertex 43.4983 18.1988 4.74769
      vertex 43.542 18.1766 4.74769
    endloop
  endfacet
  facet normal 0.0926992 0.585254 0.805534
    outer loop
      vertex 43.45 18.7571 4.46711
      vertex 43.45 18.504 4.65101
      vertex 43.5903 18.4818 4.65101
    endloop
  endfacet
  facet normal 0.141867 0.278438 0.949919
    outer loop
      vertex 43.5903 18.4818 4.65101
      vertex 43.4983 18.1988 4.74769
      vertex 43.7169 18.4173 4.65101
    endloop
  endfacet
  facet normal -0.148955 0.940447 0.305569
    outer loop
      vertex 1 18.941 4.21399
      vertex 0.694788 18.9893 3.91643
      vertex 0.724665 18.8974 4.21399
    endloop
  endfacet
  facet normal -0.0926986 0.585254 0.805534
    outer loop
      vertex 1 18.7571 4.46711
      vertex 0.85971 18.4818 4.65101
      vertex 1 18.504 4.65101
    endloop
  endfacet
  facet normal -0.453992 0.891006 0
    outer loop
      vertex 0.690984 19.0011 0
      vertex 0.412215 18.859 1
      vertex 0.690984 19.0011 1
    endloop
  endfacet
  facet normal -0.453992 0.891006 0
    outer loop
      vertex 0.412215 18.859 1
      vertex 0.690984 19.0011 0
      vertex 0.412215 18.859 0
    endloop
  endfacet
  facet normal -0.432272 0.84839 0.305573
    outer loop
      vertex 0.694788 18.9893 3.91643
      vertex 0.419452 18.8491 3.91643
      vertex 0.47628 18.7708 4.21399
    endloop
  endfacet
  facet normal -0.148955 0.940447 0.305569
    outer loop
      vertex 1 19.0377 3.91643
      vertex 0.694788 18.9893 3.91643
      vertex 1 18.941 4.21399
    endloop
  endfacet
  facet normal -0.527967 0.269013 0.805533
    outer loop
      vertex 0.427939 18.4656 4.46711
      vertex 0.327502 18.2685 4.46711
      vertex 0.632714 18.3168 4.65101
    endloop
  endfacet
  facet normal -0.141869 0.278437 0.949919
    outer loop
      vertex 0.85971 18.4818 4.65101
      vertex 0.733151 18.4173 4.65101
      vertex 0.951659 18.1988 4.74769
    endloop
  endfacet
  facet normal -0.453988 0.890998 0.0041694
    outer loop
      vertex 0.690984 19.0011 1
      vertex 0.412215 18.859 1
      vertex 0.419452 18.8491 3.91643
    endloop
  endfacet
  facet normal -0.987688 0.156434 0
    outer loop
      vertex 0 18.05 0
      vertex 0.0489435 18.359 1
      vertex 0.0489435 18.359 0
    endloop
  endfacet
  facet normal -0.987688 0.156434 0
    outer loop
      vertex 0.0489435 18.359 1
      vertex 0 18.05 0
      vertex 0 18.05 1
    endloop
  endfacet
  facet normal -0.890998 0.453989 0.00416961
    outer loop
      vertex 0.200944 18.6305 3.91643
      vertex 0.0489435 18.359 1
      vertex 0.0606527 18.3552 3.91643
    endloop
  endfacet
  facet normal -0.723906 0.368849 0.583019
    outer loop
      vertex 0.427939 18.4656 4.46711
      vertex 0.279161 18.5737 4.21399
      vertex 0.327502 18.2685 4.46711
    endloop
  endfacet
  facet normal -0.574492 0.574496 0.583021
    outer loop
      vertex 0.47628 18.7708 4.21399
      vertex 0.427939 18.4656 4.46711
      vertex 0.584373 18.6221 4.46711
    endloop
  endfacet
  facet normal -0.574495 0.574495 0.583019
    outer loop
      vertex 0.427939 18.4656 4.46711
      vertex 0.47628 18.7708 4.21399
      vertex 0.279161 18.5737 4.21399
    endloop
  endfacet
  facet normal -0.585254 0.0926952 0.805534
    outer loop
      vertex 0.56823 18.1903 4.65101
      vertex 0.292893 18.05 4.46711
      vertex 0.54601 18.05 4.65101
    endloop
  endfacet
  facet normal -0.278438 0.141869 0.949919
    outer loop
      vertex 0.632714 18.3168 4.65101
      vertex 0.56823 18.1903 4.65101
      vertex 0.851222 18.0983 4.74769
    endloop
  endfacet
  facet normal -0.30865 0.0488854 0.949919
    outer loop
      vertex 0.56823 18.1903 4.65101
      vertex 0.54601 18.05 4.65101
      vertex 0.851222 18.0983 4.74769
    endloop
  endfacet
  facet normal 0.1271 -0.802455 0.58302
    outer loop
      vertex 43.45 14.5829 4.46711
      vertex 43.45 14.399 4.21399
      vertex 43.6685 14.6175 4.46711
    endloop
  endfacet
  facet normal 0.1271 -0.802455 0.58302
    outer loop
      vertex 43.6685 14.6175 4.46711
      vertex 43.45 14.399 4.21399
      vertex 43.7253 14.4426 4.21399
    endloop
  endfacet
  facet normal 0.269009 -0.527968 0.805533
    outer loop
      vertex 43.7169 14.9227 4.65101
      vertex 43.5903 14.8582 4.65101
      vertex 43.6685 14.6175 4.46711
    endloop
  endfacet
  facet normal 0.368846 -0.723907 0.583019
    outer loop
      vertex 43.8656 14.7179 4.46711
      vertex 43.6685 14.6175 4.46711
      vertex 43.9737 14.5692 4.21399
    endloop
  endfacet
  facet normal 0.148956 -0.940446 0.305572
    outer loop
      vertex 43.7253 14.4426 4.21399
      vertex 43.45 14.399 4.21399
      vertex 43.7552 14.3507 3.91643
    endloop
  endfacet
  facet normal 0.432276 -0.84839 0.30557
    outer loop
      vertex 43.9737 14.5692 4.21399
      vertex 43.7552 14.3507 3.91643
      vertex 44.0305 14.4909 3.91643
    endloop
  endfacet
  facet normal 0.673289 -0.673282 0.305569
    outer loop
      vertex 43.9737 14.5692 4.21399
      vertex 44.2491 14.7095 3.91643
      vertex 44.1708 14.7663 4.21399
    endloop
  endfacet
  facet normal 0.673289 -0.673283 0.305569
    outer loop
      vertex 44.2491 14.7095 3.91643
      vertex 43.9737 14.5692 4.21399
      vertex 44.0305 14.4909 3.91643
    endloop
  endfacet
  facet normal 0.987678 -0.156443 0.00416885
    outer loop
      vertex 44.45 15.29 1
      vertex 44.3893 14.9848 3.91643
      vertex 44.4011 14.981 1
    endloop
  endfacet
  facet normal 0.98768 -0.15643 0.00417021
    outer loop
      vertex 44.4377 15.29 3.91643
      vertex 44.3893 14.9848 3.91643
      vertex 44.45 15.29 1
    endloop
  endfacet
  facet normal 0.0926952 -0.585254 0.805534
    outer loop
      vertex 43.45 14.836 4.65101
      vertex 43.45 14.5829 4.46711
      vertex 43.5903 14.8582 4.65101
    endloop
  endfacet
  facet normal 0.309017 0 0.951056
    outer loop
      vertex 43.6064 18.05 4.74769
      vertex 43.904 15.29 4.65101
      vertex 43.904 18.05 4.65101
    endloop
  endfacet
  facet normal 0.309017 0 0.951056
    outer loop
      vertex 43.904 15.29 4.65101
      vertex 43.6064 18.05 4.74769
      vertex 43.6064 15.29 4.74769
    endloop
  endfacet
  facet normal 0.308648 0.0488872 0.949919
    outer loop
      vertex 43.8818 18.1903 4.65101
      vertex 43.5988 18.0983 4.74769
      vertex 43.904 18.05 4.65101
    endloop
  endfacet
  facet normal 0.587791 0 0.809013
    outer loop
      vertex 43.904 18.05 4.65101
      vertex 44.1571 15.29 4.46711
      vertex 44.1571 18.05 4.46711
    endloop
  endfacet
  facet normal 0.587791 0 0.809013
    outer loop
      vertex 44.1571 15.29 4.46711
      vertex 43.904 18.05 4.65101
      vertex 43.904 15.29 4.65101
    endloop
  endfacet
  facet normal 0.673291 0.67328 0.305571
    outer loop
      vertex 43.9737 18.7708 4.21399
      vertex 44.2491 18.6305 3.91643
      vertex 44.0305 18.8491 3.91643
    endloop
  endfacet
  facet normal 0.673289 0.673283 0.305567
    outer loop
      vertex 44.2491 18.6305 3.91643
      vertex 43.9737 18.7708 4.21399
      vertex 44.1708 18.5737 4.21399
    endloop
  endfacet
  facet normal 0.707101 0.707101 0.00416939
    outer loop
      vertex 44.0305 18.8491 3.91643
      vertex 44.259 18.6378 1
      vertex 44.0378 18.859 1
    endloop
  endfacet
  facet normal 0.707107 0.707094 0.00417033
    outer loop
      vertex 44.259 18.6378 1
      vertex 44.0305 18.8491 3.91643
      vertex 44.2491 18.6305 3.91643
    endloop
  endfacet
  facet normal 0.940447 0.148955 0.305569
    outer loop
      vertex 44.3893 18.3552 3.91643
      vertex 44.2974 18.3253 4.21399
      vertex 44.341 18.05 4.21399
    endloop
  endfacet
  facet normal 0.848387 0.432283 0.305568
    outer loop
      vertex 44.2491 18.6305 3.91643
      vertex 44.1708 18.5737 4.21399
      vertex 44.3893 18.3552 3.91643
    endloop
  endfacet
  facet normal 0.723903 -0.368853 0.58302
    outer loop
      vertex 44.2974 15.0147 4.21399
      vertex 44.1225 15.0715 4.46711
      vertex 44.1708 14.7663 4.21399
    endloop
  endfacet
  facet normal 0.940449 -0.148949 0.305564
    outer loop
      vertex 44.4377 15.29 3.91643
      vertex 44.341 15.29 4.21399
      vertex 44.3893 14.9848 3.91643
    endloop
  endfacet
  facet normal 0.368846 0.723906 0.583021
    outer loop
      vertex 43.7253 18.8974 4.21399
      vertex 43.6685 18.7225 4.46711
      vertex 43.9737 18.7708 4.21399
    endloop
  endfacet
  facet normal 0.127099 0.802453 0.583022
    outer loop
      vertex 43.7253 18.8974 4.21399
      vertex 43.45 18.941 4.21399
      vertex 43.6685 18.7225 4.46711
    endloop
  endfacet
  facet normal 0.0488872 0.308648 0.949919
    outer loop
      vertex 43.5903 18.4818 4.65101
      vertex 43.45 18.504 4.65101
      vertex 43.4983 18.1988 4.74769
    endloop
  endfacet
  facet normal 0.0488839 0.308648 0.949919
    outer loop
      vertex 43.45 18.504 4.65101
      vertex 43.45 18.2064 4.74769
      vertex 43.4983 18.1988 4.74769
    endloop
  endfacet
  facet normal 0.58526 0.0927001 0.805529
    outer loop
      vertex 44.1571 18.05 4.46711
      vertex 43.8818 18.1903 4.65101
      vertex 43.904 18.05 4.65101
    endloop
  endfacet
  facet normal 0.368845 0.723906 0.583021
    outer loop
      vertex 43.9737 18.7708 4.21399
      vertex 43.6685 18.7225 4.46711
      vertex 43.8656 18.6221 4.46711
    endloop
  endfacet
  facet normal -0.127106 0.802456 0.583017
    outer loop
      vertex 1 18.941 4.21399
      vertex 0.781492 18.7225 4.46711
      vertex 1 18.7571 4.46711
    endloop
  endfacet
  facet normal -0.418998 0.418998 0.805532
    outer loop
      vertex 0.584373 18.6221 4.46711
      vertex 0.632714 18.3168 4.65101
      vertex 0.733151 18.4173 4.65101
    endloop
  endfacet
  facet normal -0.418996 0.418999 0.805532
    outer loop
      vertex 0.632714 18.3168 4.65101
      vertex 0.584373 18.6221 4.46711
      vertex 0.427939 18.4656 4.46711
    endloop
  endfacet
  facet normal -0.0488829 0.308648 0.949919
    outer loop
      vertex 1 18.504 4.65101
      vertex 0.951659 18.1988 4.74769
      vertex 1 18.2064 4.74769
    endloop
  endfacet
  facet normal -0.269014 0.527969 0.805531
    outer loop
      vertex 0.781492 18.7225 4.46711
      vertex 0.584373 18.6221 4.46711
      vertex 0.733151 18.4173 4.65101
    endloop
  endfacet
  facet normal -0.368848 0.723904 0.583021
    outer loop
      vertex 0.781492 18.7225 4.46711
      vertex 0.47628 18.7708 4.21399
      vertex 0.584373 18.6221 4.46711
    endloop
  endfacet
  facet normal -0.278435 0.141872 0.949919
    outer loop
      vertex 0.873443 18.1419 4.74769
      vertex 0.632714 18.3168 4.65101
      vertex 0.851222 18.0983 4.74769
    endloop
  endfacet
  facet normal -0.220964 0.22097 0.949919
    outer loop
      vertex 0.733151 18.4173 4.65101
      vertex 0.873443 18.1419 4.74769
      vertex 0.908051 18.1766 4.74769
    endloop
  endfacet
  facet normal -0.220968 0.220968 0.949919
    outer loop
      vertex 0.873443 18.1419 4.74769
      vertex 0.733151 18.4173 4.65101
      vertex 0.632714 18.3168 4.65101
    endloop
  endfacet
  facet normal -0.98768 0.156433 0.00416955
    outer loop
      vertex 0.0489435 18.359 1
      vertex 0 18.05 1
      vertex 0.0606527 18.3552 3.91643
    endloop
  endfacet
  facet normal -0.707104 0.707098 0.00416939
    outer loop
      vertex 0.190984 18.6378 1
      vertex 0.419452 18.8491 3.91643
      vertex 0.412215 18.859 1
    endloop
  endfacet
  facet normal -0.707104 0.707098 0.0041694
    outer loop
      vertex 0.419452 18.8491 3.91643
      vertex 0.190984 18.6378 1
      vertex 0.200944 18.6305 3.91643
    endloop
  endfacet
  facet normal 0.940447 -0.148955 0.305569
    outer loop
      vertex 44.341 15.29 4.21399
      vertex 44.2974 15.0147 4.21399
      vertex 44.3893 14.9848 3.91643
    endloop
  endfacet
  facet normal 0.527964 -0.269023 0.805532
    outer loop
      vertex 43.8818 15.1497 4.65101
      vertex 43.8173 15.0232 4.65101
      vertex 44.1225 15.0715 4.46711
    endloop
  endfacet
  facet normal 0.418996 -0.418994 0.805535
    outer loop
      vertex 43.8173 15.0232 4.65101
      vertex 43.8656 14.7179 4.46711
      vertex 44.0221 14.8744 4.46711
    endloop
  endfacet
  facet normal 0.419006 -0.41899 0.805532
    outer loop
      vertex 43.8656 14.7179 4.46711
      vertex 43.8173 15.0232 4.65101
      vertex 43.7169 14.9227 4.65101
    endloop
  endfacet
  facet normal 0.269011 -0.527968 0.805532
    outer loop
      vertex 43.7169 14.9227 4.65101
      vertex 43.6685 14.6175 4.46711
      vertex 43.8656 14.7179 4.46711
    endloop
  endfacet
  facet normal 0.368846 -0.723907 0.583019
    outer loop
      vertex 43.9737 14.5692 4.21399
      vertex 43.6685 14.6175 4.46711
      vertex 43.7253 14.4426 4.21399
    endloop
  endfacet
  facet normal 0.432273 -0.84839 0.305572
    outer loop
      vertex 43.9737 14.5692 4.21399
      vertex 43.7253 14.4426 4.21399
      vertex 43.7552 14.3507 3.91643
    endloop
  endfacet
  facet normal 0.585258 0.0926922 0.805532
    outer loop
      vertex 44.1225 18.2685 4.46711
      vertex 43.8818 18.1903 4.65101
      vertex 44.1571 18.05 4.46711
    endloop
  endfacet
  facet normal 0.308648 0.0488839 0.949919
    outer loop
      vertex 43.904 18.05 4.65101
      vertex 43.5988 18.0983 4.74769
      vertex 43.6064 18.05 4.74769
    endloop
  endfacet
  facet normal 0.269012 0.527971 0.80553
    outer loop
      vertex 43.8656 18.6221 4.46711
      vertex 43.6685 18.7225 4.46711
      vertex 43.7169 18.4173 4.65101
    endloop
  endfacet
  facet normal 0.848387 0.432282 0.305569
    outer loop
      vertex 44.3893 18.3552 3.91643
      vertex 44.1708 18.5737 4.21399
      vertex 44.2974 18.3253 4.21399
    endloop
  endfacet
  facet normal 0.269006 0.527971 0.805532
    outer loop
      vertex 43.6685 18.7225 4.46711
      vertex 43.5903 18.4818 4.65101
      vertex 43.7169 18.4173 4.65101
    endloop
  endfacet
  facet normal 0.278435 0.141874 0.949919
    outer loop
      vertex 43.8173 18.3168 4.65101
      vertex 43.5988 18.0983 4.74769
      vertex 43.8818 18.1903 4.65101
    endloop
  endfacet
  facet normal 0.220973 0.220964 0.949919
    outer loop
      vertex 43.7169 18.4173 4.65101
      vertex 43.5766 18.1419 4.74769
      vertex 43.8173 18.3168 4.65101
    endloop
  endfacet
  facet normal 0.220967 0.220967 0.94992
    outer loop
      vertex 43.5766 18.1419 4.74769
      vertex 43.7169 18.4173 4.65101
      vertex 43.542 18.1766 4.74769
    endloop
  endfacet
  facet normal -0.368848 0.723905 0.583021
    outer loop
      vertex 0.724665 18.8974 4.21399
      vertex 0.47628 18.7708 4.21399
      vertex 0.781492 18.7225 4.46711
    endloop
  endfacet
  facet normal -0.127098 0.802454 0.583022
    outer loop
      vertex 1 18.941 4.21399
      vertex 0.724665 18.8974 4.21399
      vertex 0.781492 18.7225 4.46711
    endloop
  endfacet
  facet normal -0.141874 0.278432 0.94992
    outer loop
      vertex 0.951659 18.1988 4.74769
      vertex 0.733151 18.4173 4.65101
      vertex 0.908051 18.1766 4.74769
    endloop
  endfacet
  facet normal -0.70711 0.707104 0
    outer loop
      vertex 0.190984 18.6378 0
      vertex 0.412215 18.859 1
      vertex 0.412215 18.859 0
    endloop
  endfacet
  facet normal -0.70711 0.707104 0
    outer loop
      vertex 0.412215 18.859 1
      vertex 0.190984 18.6378 0
      vertex 0.190984 18.6378 1
    endloop
  endfacet
  facet normal -0.890997 0.453991 0.0041694
    outer loop
      vertex 0.190984 18.6378 1
      vertex 0.0489435 18.359 1
      vertex 0.200944 18.6305 3.91643
    endloop
  endfacet
  facet normal 0.802454 -0.127098 0.583022
    outer loop
      vertex 44.341 15.29 4.21399
      vertex 44.1225 15.0715 4.46711
      vertex 44.2974 15.0147 4.21399
    endloop
  endfacet
  facet normal 0.802452 -0.127091 0.583026
    outer loop
      vertex 44.1571 15.29 4.46711
      vertex 44.1225 15.0715 4.46711
      vertex 44.341 15.29 4.21399
    endloop
  endfacet
  facet normal 0.585258 -0.0926923 0.805532
    outer loop
      vertex 44.1571 15.29 4.46711
      vertex 43.8818 15.1497 4.65101
      vertex 44.1225 15.0715 4.46711
    endloop
  endfacet
  facet normal 0.58526 -0.0926995 0.805529
    outer loop
      vertex 43.904 15.29 4.65101
      vertex 43.8818 15.1497 4.65101
      vertex 44.1571 15.29 4.46711
    endloop
  endfacet
  facet normal 0.278435 -0.141875 0.949919
    outer loop
      vertex 43.5988 15.2417 4.74769
      vertex 43.5766 15.1981 4.74769
      vertex 43.8173 15.0232 4.65101
    endloop
  endfacet
  facet normal 0.0488854 -0.30865 0.949919
    outer loop
      vertex 43.4983 15.1412 4.74769
      vertex 43.45 14.836 4.65101
      vertex 43.5903 14.8582 4.65101
    endloop
  endfacet
  facet normal 0.0926977 -0.585255 0.805533
    outer loop
      vertex 43.5903 14.8582 4.65101
      vertex 43.45 14.5829 4.46711
      vertex 43.6685 14.6175 4.46711
    endloop
  endfacet
  facet normal 0.527965 0.269012 0.805534
    outer loop
      vertex 44.0221 18.4656 4.46711
      vertex 43.8173 18.3168 4.65101
      vertex 44.1225 18.2685 4.46711
    endloop
  endfacet
  facet normal 0.723903 0.368853 0.58302
    outer loop
      vertex 44.1708 18.5737 4.21399
      vertex 44.1225 18.2685 4.46711
      vertex 44.2974 18.3253 4.21399
    endloop
  endfacet
  facet normal 0.802454 0.127098 0.583022
    outer loop
      vertex 44.2974 18.3253 4.21399
      vertex 44.1225 18.2685 4.46711
      vertex 44.341 18.05 4.21399
    endloop
  endfacet
  facet normal 0.723907 0.368849 0.583017
    outer loop
      vertex 44.1708 18.5737 4.21399
      vertex 44.0221 18.4656 4.46711
      vertex 44.1225 18.2685 4.46711
    endloop
  endfacet
  facet normal -0.269009 0.527969 0.805533
    outer loop
      vertex 0.781492 18.7225 4.46711
      vertex 0.733151 18.4173 4.65101
      vertex 0.85971 18.4818 4.65101
    endloop
  endfacet
  facet normal -0.0927021 0.585255 0.805533
    outer loop
      vertex 1 18.7571 4.46711
      vertex 0.781492 18.7225 4.46711
      vertex 0.85971 18.4818 4.65101
    endloop
  endfacet
  facet normal 0.527964 -0.269012 0.805535
    outer loop
      vertex 44.1225 15.0715 4.46711
      vertex 43.8173 15.0232 4.65101
      vertex 44.0221 14.8744 4.46711
    endloop
  endfacet
  facet normal 0.723907 -0.368849 0.583017
    outer loop
      vertex 44.1225 15.0715 4.46711
      vertex 44.0221 14.8744 4.46711
      vertex 44.1708 14.7663 4.21399
    endloop
  endfacet
  facet normal 0.278435 -0.141876 0.949919
    outer loop
      vertex 43.8818 15.1497 4.65101
      vertex 43.5988 15.2417 4.74769
      vertex 43.8173 15.0232 4.65101
    endloop
  endfacet
  facet normal 0.308649 -0.0488869 0.949919
    outer loop
      vertex 43.904 15.29 4.65101
      vertex 43.5988 15.2417 4.74769
      vertex 43.8818 15.1497 4.65101
    endloop
  endfacet
  facet normal 0.141869 -0.278438 0.949919
    outer loop
      vertex 43.7169 14.9227 4.65101
      vertex 43.4983 15.1412 4.74769
      vertex 43.5903 14.8582 4.65101
    endloop
  endfacet
  facet normal 0.0488842 -0.30865 0.949919
    outer loop
      vertex 43.45 15.1336 4.74769
      vertex 43.45 14.836 4.65101
      vertex 43.4983 15.1412 4.74769
    endloop
  endfacet
  facet normal 0.418996 0.418996 0.805534
    outer loop
      vertex 43.8656 18.6221 4.46711
      vertex 43.8173 18.3168 4.65101
      vertex 44.0221 18.4656 4.46711
    endloop
  endfacet
  facet normal 0.419008 0.418992 0.80553
    outer loop
      vertex 43.8173 18.3168 4.65101
      vertex 43.8656 18.6221 4.46711
      vertex 43.7169 18.4173 4.65101
    endloop
  endfacet
  facet normal 0.574498 0.574493 0.583018
    outer loop
      vertex 43.9737 18.7708 4.21399
      vertex 44.0221 18.4656 4.46711
      vertex 44.1708 18.5737 4.21399
    endloop
  endfacet
  facet normal 0.574494 0.574494 0.58302
    outer loop
      vertex 44.0221 18.4656 4.46711
      vertex 43.9737 18.7708 4.21399
      vertex 43.8656 18.6221 4.46711
    endloop
  endfacet
  facet normal 0.278436 0.141873 0.949919
    outer loop
      vertex 43.8173 18.3168 4.65101
      vertex 43.5766 18.1419 4.74769
      vertex 43.5988 18.0983 4.74769
    endloop
  endfacet
  facet normal 0.141872 -0.278435 0.949919
    outer loop
      vertex 43.542 15.1634 4.74769
      vertex 43.4983 15.1412 4.74769
      vertex 43.7169 14.9227 4.65101
    endloop
  endfacet
  facet normal 0.220973 -0.220965 0.949919
    outer loop
      vertex 43.5766 15.1981 4.74769
      vertex 43.7169 14.9227 4.65101
      vertex 43.8173 15.0232 4.65101
    endloop
  endfacet
  facet normal 0.220972 -0.220965 0.949919
    outer loop
      vertex 43.7169 14.9227 4.65101
      vertex 43.5766 15.1981 4.74769
      vertex 43.542 15.1634 4.74769
    endloop
  endfacet
  facet normal 0.809016 0 0.587786
    outer loop
      vertex 4.46711 14.5829 4.46711
      vertex 4.65101 4.65101 4.21399
      vertex 4.65101 14.399 4.21399
    endloop
  endfacet
  facet normal 0.809016 0 0.587786
    outer loop
      vertex 4.65101 4.65101 4.21399
      vertex 4.46711 14.5829 4.46711
      vertex 4.46711 4.46711 4.46711
    endloop
  endfacet
  facet normal 0.999991 0 0.00422153
    outer loop
      vertex 4.74769 14.3023 3.91643
      vertex 4.76 4.76 1
      vertex 4.76 14.29 1
    endloop
  endfacet
  facet normal 0.999991 0 0.00422153
    outer loop
      vertex 4.76 4.76 1
      vertex 4.74769 14.3023 3.91643
      vertex 4.74769 4.74769 3.91643
    endloop
  endfacet
  facet normal 1 -0 0
    outer loop
      vertex 4.76 4.76 1
      vertex 4.76 14.29 0
      vertex 4.76 14.29 1
    endloop
  endfacet
  facet normal 1 0 0
    outer loop
      vertex 4.76 14.29 0
      vertex 4.76 4.76 1
      vertex 4.76 4.76 0
    endloop
  endfacet
  facet normal 0.951057 0 0.309016
    outer loop
      vertex 4.65101 14.399 4.21399
      vertex 4.74769 4.74769 3.91643
      vertex 4.74769 14.3023 3.91643
    endloop
  endfacet
  facet normal 0.951057 0 0.309016
    outer loop
      vertex 4.74769 4.74769 3.91643
      vertex 4.65101 14.399 4.21399
      vertex 4.65101 4.65101 4.21399
    endloop
  endfacet
  facet normal 0.309019 0 0.951056
    outer loop
      vertex 3.91643 15.1336 4.74769
      vertex 4.21399 4.21399 4.65101
      vertex 4.21399 14.836 4.65101
    endloop
  endfacet
  facet normal 0.309019 0 0.951056
    outer loop
      vertex 4.21399 4.21399 4.65101
      vertex 3.91643 15.1336 4.74769
      vertex 3.91643 3.91643 4.74769
    endloop
  endfacet
  facet normal 0.587785 0 0.809017
    outer loop
      vertex 4.21399 14.836 4.65101
      vertex 4.46711 4.46711 4.46711
      vertex 4.46711 14.5829 4.46711
    endloop
  endfacet
  facet normal 0.587785 0 0.809017
    outer loop
      vertex 4.46711 4.46711 4.46711
      vertex 4.21399 14.836 4.65101
      vertex 4.21399 4.21399 4.65101
    endloop
  endfacet
endsolid OpenSCAD_Model
