<?xml version="1.0" encoding="UTF-8" standalone="no"?>
<!-- Created with Inkscape (http://www.inkscape.org/) -->

<svg
   width="210mm"
   height="297mm"
   viewBox="0 0 210 297"
   version="1.1"
   id="svg980"
   inkscape:version="1.1.2 (1:1.1+202202050950+0a00cf5339)"
   sodipodi:docname="bracelet_open_xl.svg"
   xmlns:inkscape="http://www.inkscape.org/namespaces/inkscape"
   xmlns:sodipodi="http://sodipodi.sourceforge.net/DTD/sodipodi-0.dtd"
   xmlns="http://www.w3.org/2000/svg"
   xmlns:svg="http://www.w3.org/2000/svg">
  <sodipodi:namedview
     id="namedview982"
     pagecolor="#ffffff"
     bordercolor="#666666"
     borderopacity="1.0"
     inkscape:pageshadow="2"
     inkscape:pageopacity="0.0"
     inkscape:pagecheckerboard="0"
     inkscape:document-units="mm"
     showgrid="false"
     inkscape:zoom="0.64052329"
     inkscape:cx="397.33138"
     inkscape:cy="561.25984"
     inkscape:window-width="1864"
     inkscape:window-height="1016"
     inkscape:window-x="56"
     inkscape:window-y="27"
     inkscape:window-maximized="1"
     inkscape:current-layer="layer1" />
  <defs
     id="defs977" />
  <g
     inkscape:label="Layer 1"
     inkscape:groupmode="layer"
     id="layer1">
    <path
       id="path1658"
       style="stroke-width:15.5501;stroke-linecap:round;stroke-linejoin:round"
       d="M 25.316014,54.70623 A 4.9963166,5.2937718 0 0 1 20.319698,60 a 4.9963166,5.2937718 0 0 1 -4.996317,-5.29377 4.9963166,5.2937718 0 0 1 4.996317,-5.29377 4.9963166,5.2937718 0 0 1 4.996316,5.29377 z" />
    <path
       id="path1857"
       style="stroke-width:15.5501;stroke-linecap:round;stroke-linejoin:round;stroke-miterlimit:4;stroke-dasharray:none"
       d="M 64.130052,54.70623 A 4.9963167,5.2937719 0 0 1 59.133736,60 a 4.9963167,5.2937719 0 0 1 -4.996318,-5.29377 4.9963167,5.2937719 0 0 1 4.996318,-5.29377 4.9963167,5.2937719 0 0 1 4.996316,5.29377 z" />
    <path
       id="path1626"
       style="fill:none;stroke:#000000;stroke-width:2.5;stroke-linecap:round;stroke-linejoin:round;stroke-miterlimit:4;stroke-dasharray:none"
       d="M 20.349327,54.70623 A 38.644556,28.765766 0 0 1 2.3438303,22.34921 38.644556,28.765766 0 0 1 39.671605,1.02858 38.644556,28.765766 0 0 1 76.99938,22.34921 38.644556,28.765766 0 0 1 58.993881,54.70623" />
  </g>
</svg>
