<?xml version="1.0" encoding="UTF-8" standalone="no"?>
<!-- Created with Inkscape (http://www.inkscape.org/) -->

<svg
   width="210mm"
   height="297mm"
   viewBox="0 0 210 297"
   version="1.1"
   id="svg980"
   inkscape:version="1.1.2 (1:1.1+202202050950+0a00cf5339)"
   sodipodi:docname="bracelet_open_l.svg"
   xmlns:inkscape="http://www.inkscape.org/namespaces/inkscape"
   xmlns:sodipodi="http://sodipodi.sourceforge.net/DTD/sodipodi-0.dtd"
   xmlns="http://www.w3.org/2000/svg"
   xmlns:svg="http://www.w3.org/2000/svg">
  <sodipodi:namedview
     id="namedview982"
     pagecolor="#ffffff"
     bordercolor="#666666"
     borderopacity="1.0"
     inkscape:pageshadow="2"
     inkscape:pageopacity="0.0"
     inkscape:pagecheckerboard="0"
     inkscape:document-units="mm"
     showgrid="false"
     inkscape:zoom="0.64052329"
     inkscape:cx="297.41307"
     inkscape:cy="281.80084"
     inkscape:window-width="1864"
     inkscape:window-height="1016"
     inkscape:window-x="56"
     inkscape:window-y="27"
     inkscape:window-maximized="1"
     inkscape:current-layer="layer1"
     showguides="true"
     inkscape:guide-bbox="true">
    <sodipodi:guide
       position="18.888508,246.39839"
       orientation="0,-1"
       id="guide1644" />
    <sodipodi:guide
       position="18.888508,246.3984"
       orientation="1,0"
       id="guide1646" />
    <sodipodi:guide
       position="54.611424,246.39839"
       orientation="1,0"
       id="guide1648" />
  </sodipodi:namedview>
  <defs
     id="defs977" />
  <g
     inkscape:label="Layer 1"
     inkscape:groupmode="layer"
     id="layer1">
    <path
       id="path1658"
       style="stroke-width:15.5501;stroke-linecap:round;stroke-linejoin:round"
       d="m 23.874107,50.601611 a 4.9963166,5.2937718 0 0 1 -4.996316,5.29377 4.9963166,5.2937718 0 0 1 -4.996317,-5.29377 4.9963166,5.2937718 0 0 1 4.996317,-5.29377 4.9963166,5.2937718 0 0 1 4.996316,5.29377 z" />
    <path
       id="path1857"
       style="stroke-width:15.5501;stroke-linecap:round;stroke-linejoin:round;stroke-miterlimit:4;stroke-dasharray:none"
       d="m 59.623505,50.601611 a 4.9963167,5.2937719 0 0 1 -4.996316,5.29377 4.9963167,5.2937719 0 0 1 -4.996318,-5.29377 4.9963167,5.2937719 0 0 1 4.996318,-5.29377 4.9963167,5.2937719 0 0 1 4.996316,5.29377 z" />
    <path
       id="path1626"
       style="fill:none;stroke:#000000;stroke-width:2.5;stroke-linecap:round;stroke-linejoin:round;stroke-miterlimit:4;stroke-dasharray:none"
       d="M 18.888508,50.601616 A 35.722919,26.56611 0 0 1 2.2442777,20.718867 35.722919,26.56611 0 0 1 36.749968,1.02858 35.722919,26.56611 0 0 1 71.255658,20.718867 35.722919,26.56611 0 0 1 54.611425,50.601616" />
  </g>
</svg>
