<?xml version="1.0" encoding="UTF-8" standalone="no"?>
<!-- Created with Inkscape (http://www.inkscape.org/) -->

<svg
   width="210mm"
   height="297mm"
   viewBox="0 0 210 297"
   version="1.1"
   id="svg980"
   inkscape:version="1.1.2 (1:1.1+202202050950+0a00cf5339)"
   sodipodi:docname="bracelet_open_s.svg"
   xmlns:inkscape="http://www.inkscape.org/namespaces/inkscape"
   xmlns:sodipodi="http://sodipodi.sourceforge.net/DTD/sodipodi-0.dtd"
   xmlns="http://www.w3.org/2000/svg"
   xmlns:svg="http://www.w3.org/2000/svg">
  <sodipodi:namedview
     id="namedview982"
     pagecolor="#ffffff"
     bordercolor="#666666"
     borderopacity="1.0"
     inkscape:pageshadow="2"
     inkscape:pageopacity="0.0"
     inkscape:pagecheckerboard="0"
     inkscape:document-units="mm"
     showgrid="false"
     inkscape:zoom="1.2810466"
     inkscape:cx="242.37994"
     inkscape:cy="325.9054"
     inkscape:window-width="1864"
     inkscape:window-height="1016"
     inkscape:window-x="56"
     inkscape:window-y="27"
     inkscape:window-maximized="1"
     inkscape:current-layer="layer1"
     showguides="true"
     inkscape:guide-bbox="true">
    <sodipodi:guide
       position="15.513833,255.8807"
       orientation="0,-1"
       id="guide1644" />
    <sodipodi:guide
       position="15.513833,255.8807"
       orientation="1,0"
       id="guide1646" />
    <sodipodi:guide
       position="44.487399,255.8807"
       orientation="1,0"
       id="guide1648" />
  </sodipodi:namedview>
  <defs
     id="defs977" />
  <g
     inkscape:label="Layer 1"
     inkscape:groupmode="layer"
     id="layer1">
    <path
       id="path1658"
       style="stroke-width:15.5501;stroke-linecap:round;stroke-linejoin:round"
       d="m 20.796766,41.119301 a 4.9963166,5.2937718 0 0 1 -4.996316,5.29377 4.9963166,5.2937718 0 0 1 -4.996317,-5.29377 4.9963166,5.2937718 0 0 1 4.996317,-5.29377 4.9963166,5.2937718 0 0 1 4.996316,5.29377 z" />
    <path
       id="path1857"
       style="stroke-width:15.5501;stroke-linecap:round;stroke-linejoin:round;stroke-miterlimit:4;stroke-dasharray:none"
       d="m 49.564452,41.119301 a 4.9963167,5.2937719 0 0 1 -4.996316,5.29377 4.9963167,5.2937719 0 0 1 -4.996318,-5.29377 4.9963167,5.2937719 0 0 1 4.996318,-5.29377 4.9963167,5.2937719 0 0 1 4.996316,5.29377 z" />
    <path
       id="path1626"
       style="fill:none;stroke:#000000;stroke-width:2.5;stroke-linecap:round;stroke-linejoin:round;stroke-miterlimit:4;stroke-dasharray:none"
       d="M 15.513833,41.1193 A 28.973569,21.484552 0 0 1 2.0142987,16.952514 28.973569,21.484552 0 0 1 30.000617,1.02858 28.973569,21.484552 0 0 1 57.986935,16.952514 28.973569,21.484552 0 0 1 44.487399,41.1193" />
  </g>
</svg>
